<?xml version="1.0" encoding="utf-8"?>
<!-- Generator: Adobe Illustrator 19.1.0, SVG Export Plug-In . SVG Version: 6.00 Build 0)  -->
<svg version="1.1" id="Слой_1" xmlns="http://www.w3.org/2000/svg" xmlns:xlink="http://www.w3.org/1999/xlink" x="0px" y="0px"
	 viewBox="0 0 32 32" style="enable-background:new 0 0 32 32;" xml:space="preserve">
<style type="text/css">
	.st0{fill:#3064AC;}
	.st1{fill:#FFFFFF;}
</style>
<rect x="0" y="0" class="st0" width="32" height="32"/>
<g>
	<path class="st1" d="M6.2,25c1,0.5,2.1,0.7,3.4,0.7c1,0,2.1-0.1,3.1-0.3c0.9-0.2,2-0.5,2.9-0.9l0.1-0.1v-5.9c0-0.7-0.2-1.3-0.6-1.5
		l0,0c-0.4-0.2-0.9-0.4-1.4-0.4h-3.7v1.7H13v5.3c-0.4,0.1-0.9,0.2-1.3,0.2c-0.6,0.1-1,0.1-1.4,0.1c-0.8,0-1.5-0.1-2.1-0.4
		S7,22.6,6.5,22.1c-0.4-0.6-0.8-1.3-1-2.3c-0.2-0.9-0.4-2.1-0.4-3.4c0-1.2,0.1-2.3,0.4-3.2c0.2-0.9,0.6-1.7,1-2.3
		C7,10.3,7.5,9.8,8.1,9.5C8.7,9.1,9.4,9,10.1,9c0.3,0,0.6,0,0.8,0.1c0.2,0,0.4,0.1,0.7,0.1c0.2,0.1,0.4,0.1,0.6,0.2
		c0.2,0.1,0.4,0.1,0.6,0.2v2.7h2.3V9.3c0-0.3-0.1-0.6-0.2-0.8c-0.1-0.2-0.3-0.4-0.7-0.6c-0.7-0.3-1.4-0.6-2.1-0.7
		c-0.7-0.1-1.4-0.2-2.2-0.2c-1.1,0-2.2,0.2-3.1,0.6C5.8,8.1,5,8.7,4.3,9.5s-1.2,1.8-1.6,2.9s-0.6,2.5-0.6,4c0,1.3,0.1,2.6,0.4,3.7
		c0.3,1.1,0.7,2.1,1.3,2.9C4.5,23.9,5.3,24.6,6.2,25z"/>
	<path class="st1" d="M20.3,23.9c0.5,0.6,1.1,1,1.8,1.3c0.7,0.3,1.5,0.4,2.3,0.4c0.9,0,1.6-0.1,2.3-0.4c0.7-0.3,1.3-0.7,1.8-1.3
		c0.5-0.6,0.9-1.3,1.2-2.1C29.9,21,30,20,30,19c0-1.1-0.1-2.1-0.4-2.9c-0.2-0.8-0.7-1.5-1.2-2.1l0,0c-0.5-0.6-1.1-1-1.8-1.2
		c-0.7-0.3-1.5-0.4-2.3-0.4c-0.8,0-1.6,0.1-2.3,0.4c-0.7,0.3-1.3,0.7-1.8,1.2c-0.5,0.6-0.9,1.2-1.2,2.1c-0.2,0.8-0.4,1.8-0.4,2.9
		c0,1,0.1,2,0.4,2.8C19.4,22.7,19.8,23.3,20.3,23.9z M21.6,19c0-0.9,0.1-1.7,0.2-2.3c0.1-0.6,0.4-1.2,0.6-1.5
		c0.2-0.4,0.6-0.7,0.9-0.9s0.7-0.2,1-0.2s0.7,0.1,1.1,0.2c0.3,0.2,0.6,0.5,0.9,0.9c0.2,0.4,0.4,0.9,0.6,1.5c0.1,0.6,0.2,1.4,0.2,2.3
		s-0.1,1.7-0.2,2.3c-0.1,0.6-0.4,1.2-0.6,1.5c-0.2,0.4-0.6,0.7-0.9,0.9c-0.7,0.4-1.5,0.4-2.2,0c-0.3-0.2-0.6-0.4-0.9-0.9
		c-0.2-0.4-0.4-0.9-0.6-1.5C21.7,20.7,21.6,19.9,21.6,19z"/>
</g>
</svg>
