<?xml version="1.0" encoding="UTF-8"?>
<svg xmlns="http://www.w3.org/2000/svg" xmlns:xlink="http://www.w3.org/1999/xlink" width="24px" height="22px" viewBox="0 0 23 22" version="1.1">
<g id="surface1">
<path style=" stroke:none;fill-rule:evenodd;fill:#6170FF;fill-opacity:1;" d="M 0 13.851562 L 0 15.304688 C 0.109375 15.589844 0.125 16.015625 0.203125 16.328125 C 0.601562 17.898438 1.113281 18.238281 1.480469 18.972656 C 1.121094 19.636719 -0.195312 20.269531 0.609375 21.15625 C 1.121094 21.722656 2.820312 21.511719 3.5625 21.230469 C 4.304688 20.949219 4.0625 21.09375 4.777344 21.375 C 6.253906 21.960938 7.851562 22.136719 9.4375 21.878906 C 13 21.300781 16.40625 18.207031 15.941406 13.957031 C 15.292969 8.054688 7.507812 5.324219 2.6875 9.253906 C 1.390625 10.3125 0.46875 11.710938 0.128906 13.417969 Z M 7.859375 11.371094 C 7.679688 11.460938 7.78125 11.34375 7.578125 11.554688 C 6.960938 12.199219 7.617188 13.410156 8.5625 13.007812 C 9.574219 12.578125 9.003906 10.78125 7.859375 11.371094 Z M 6.519531 13.539062 C 6.527344 14.128906 6.789062 13.808594 7.1875 14.097656 C 7.414062 14.75 6.546875 16.96875 6.910156 17.632812 C 7.476562 18.667969 9.617188 17.992188 9.4375 17.25 C 9.054688 17.15625 8.992188 17.546875 8.519531 17.382812 C 8.121094 16.820312 9.042969 14.457031 8.855469 13.554688 C 8.089844 13.410156 7.292969 13.46875 6.519531 13.539062 Z M 22.992188 8.046875 L 22.992188 6.585938 C 22.628906 5.824219 22.835938 4.058594 20.363281 1.957031 C 19.113281 0.894531 17.289062 0.0742188 15.160156 0.00390625 C 13.023438 -0.0664062 11.007812 0.636719 9.667969 1.660156 C 8.601562 2.46875 7.09375 4.035156 6.824219 6.046875 C 9.75 5.871094 12.253906 6.566406 14.066406 8.058594 C 15.585938 9.3125 17.164062 11.21875 17.355469 14.285156 C 17.675781 14.320312 18.25 14.03125 18.550781 13.890625 C 19.246094 13.5625 19.015625 13.433594 19.675781 13.738281 C 20.3125 14.035156 21.882812 14.359375 22.539062 14.007812 C 22.566406 13.710938 22.46875 13.683594 22.261719 13.523438 C 21.773438 13.144531 21.207031 12.257812 21.203125 12.03125 C 21.304688 11.765625 21.589844 11.480469 21.769531 11.21875 C 21.964844 10.9375 22.15625 10.613281 22.308594 10.296875 C 22.480469 9.941406 22.601562 9.636719 22.714844 9.238281 C 22.824219 8.863281 22.851562 8.359375 22.992188 8.046875 Z M 3.089844 18.679688 C 2.9375 19.261719 2.707031 19.574219 2.507812 20.019531 C 2.945312 19.949219 3.300781 19.835938 3.648438 19.621094 C 4.511719 19.082031 4.222656 20.132812 7.054688 20.503906 C 10.359375 20.9375 13.984375 18.984375 14.535156 15.527344 C 15.101562 12 12.089844 9.171875 8.691406 8.859375 C 6.863281 8.691406 4.96875 9.246094 3.785156 10.164062 C 2.722656 10.996094 1.648438 12.136719 1.417969 14.074219 C 1.25 15.488281 1.644531 16.714844 2.375 17.789062 C 2.632812 18.175781 2.886719 18.347656 3.089844 18.679688 Z M 3.089844 18.679688 "/>
</g>
</svg>
