<svg width="72" height="72" viewBox="0 0 72 72" fill="none" xmlns="http://www.w3.org/2000/svg">
<g clip-path="url(#clip0_790_2318)">
<g filter="url(#filter0_dd_790_2318)">
<path fill-rule="evenodd" clip-rule="evenodd" d="M56.5761 19.8327C56.5761 20.6557 57.2228 21.3024 58.0459 21.3024C58.869 21.3024 59.5157 20.6557 59.5157 19.8327V15.4234H63.9249C64.748 15.4234 65.3947 14.7767 65.3947 13.9536C65.3947 13.1306 64.748 12.4839 63.9249 12.4839H59.5157V8.07462C59.5157 7.25155 58.869 6.60486 58.0459 6.60486C57.2228 6.60486 56.5761 7.25155 56.5761 8.07462V12.4839H52.1669C51.3438 12.4839 50.6971 13.1306 50.6971 13.9536C50.6971 14.7767 51.3438 15.4234 52.1669 15.4234H56.5761V19.8327ZM30.3557 45.9357L30.973 47.7582H21.4195C18.5976 44.6423 16.8927 40.527 16.8927 36.0001C16.8927 26.2703 24.8 18.4512 34.5298 18.4512C44.2596 18.4512 52.1669 26.3585 52.1669 36.0883C52.1669 40.6151 50.4326 44.7305 47.64 47.8464H34.0594L33.1482 45.0832L37.3223 43.7016C38.116 43.4371 38.5275 42.614 38.263 41.8497C37.9984 41.0561 37.1753 40.6445 36.4111 40.9091L32.2369 42.2907L31.2963 39.4981L38.263 37.1759C40.1442 36.5586 41.6434 35.2652 42.5253 33.5015C43.4071 31.7378 43.5541 29.7389 42.9368 27.887C42.3195 26.0057 41.0261 24.5066 39.2624 23.6247C37.4987 22.7429 35.4998 22.5959 33.6479 23.2132L25.2703 26.0057C24.4766 26.2703 24.0651 27.0934 24.3296 27.8576L27.5925 37.6168L26.2109 38.0872C25.4173 38.3517 25.0057 39.1748 25.2703 39.9391C25.4761 40.5564 26.0346 40.9385 26.6519 40.9385C26.7988 40.9385 26.9752 40.9091 27.1222 40.8503L28.5038 40.38L29.4444 43.1725L28.0628 43.6428C27.2692 43.9074 26.8576 44.7305 27.1222 45.4947C27.328 46.112 27.8865 46.4942 28.5038 46.4942C28.6507 46.4942 28.8271 46.4648 28.9741 46.406L30.3557 45.9357ZM39.8797 32.0906C40.4088 31.0323 40.497 29.8271 40.1148 28.7101C39.7327 27.5931 38.9684 26.6818 37.9102 26.1527C36.852 25.6236 35.6762 25.5354 34.5592 25.9176L27.5925 28.2398L30.3851 36.6174L37.3517 34.2952C38.4687 33.913 39.38 33.1488 39.9091 32.0906H39.8797ZM53.6366 59.5161H15.4229C13.8062 59.5161 12.4834 58.1934 12.4834 56.5766C12.4834 54.9599 13.8062 53.6371 15.4229 53.6371H53.6366C55.2534 53.6371 56.5761 54.9599 56.5761 56.5766C56.5761 58.1934 55.2534 59.5161 53.6366 59.5161Z" fill="#EAEFFD"/>
</g>
<path fill-rule="evenodd" clip-rule="evenodd" d="M56.5761 19.8327C56.5761 20.6557 57.2228 21.3024 58.0459 21.3024C58.869 21.3024 59.5157 20.6557 59.5157 19.8327V15.4234H63.9249C64.748 15.4234 65.3947 14.7767 65.3947 13.9536C65.3947 13.1306 64.748 12.4839 63.9249 12.4839H59.5157V8.07462C59.5157 7.25155 58.869 6.60486 58.0459 6.60486C57.2228 6.60486 56.5761 7.25155 56.5761 8.07462V12.4839H52.1669C51.3438 12.4839 50.6971 13.1306 50.6971 13.9536C50.6971 14.7767 51.3438 15.4234 52.1669 15.4234H56.5761V19.8327ZM30.3557 45.9357L30.973 47.7582H21.4195C18.5976 44.6423 16.8927 40.527 16.8927 36.0001C16.8927 26.2703 24.8 18.4512 34.5298 18.4512C44.2596 18.4512 52.1669 26.3585 52.1669 36.0883C52.1669 40.6151 50.4326 44.7305 47.64 47.8464H34.0594L33.1482 45.0832L37.3223 43.7016C38.116 43.4371 38.5275 42.614 38.263 41.8497C37.9984 41.0561 37.1753 40.6445 36.4111 40.9091L32.2369 42.2907L31.2963 39.4981L38.263 37.1759C40.1442 36.5586 41.6434 35.2652 42.5253 33.5015C43.4071 31.7378 43.5541 29.7389 42.9368 27.887C42.3195 26.0057 41.0261 24.5066 39.2624 23.6247C37.4987 22.7429 35.4998 22.5959 33.6479 23.2132L25.2703 26.0057C24.4766 26.2703 24.0651 27.0934 24.3296 27.8576L27.5925 37.6168L26.2109 38.0872C25.4173 38.3517 25.0057 39.1748 25.2703 39.9391C25.4761 40.5564 26.0346 40.9385 26.6519 40.9385C26.7988 40.9385 26.9752 40.9091 27.1222 40.8503L28.5038 40.38L29.4444 43.1725L28.0628 43.6428C27.2692 43.9074 26.8576 44.7305 27.1222 45.4947C27.328 46.112 27.8865 46.4942 28.5038 46.4942C28.6507 46.4942 28.8271 46.4648 28.9741 46.406L30.3557 45.9357ZM39.8797 32.0906C40.4088 31.0323 40.497 29.8271 40.1148 28.7101C39.7327 27.5931 38.9684 26.6818 37.9102 26.1527C36.852 25.6236 35.6762 25.5354 34.5592 25.9176L27.5925 28.2398L30.3851 36.6174L37.3517 34.2952C38.4687 33.913 39.38 33.1488 39.9091 32.0906H39.8797ZM53.6366 59.5161H15.4229C13.8062 59.5161 12.4834 58.1934 12.4834 56.5766C12.4834 54.9599 13.8062 53.6371 15.4229 53.6371H53.6366C55.2534 53.6371 56.5761 54.9599 56.5761 56.5766C56.5761 58.1934 55.2534 59.5161 53.6366 59.5161Z" fill="url(#paint0_linear_790_2318)"/>
<path fill-rule="evenodd" clip-rule="evenodd" d="M56.5761 19.8327C56.5761 20.6557 57.2228 21.3024 58.0459 21.3024C58.869 21.3024 59.5157 20.6557 59.5157 19.8327V15.4234H63.9249C64.748 15.4234 65.3947 14.7767 65.3947 13.9536C65.3947 13.1306 64.748 12.4839 63.9249 12.4839H59.5157V8.07462C59.5157 7.25155 58.869 6.60486 58.0459 6.60486C57.2228 6.60486 56.5761 7.25155 56.5761 8.07462V12.4839H52.1669C51.3438 12.4839 50.6971 13.1306 50.6971 13.9536C50.6971 14.7767 51.3438 15.4234 52.1669 15.4234H56.5761V19.8327ZM30.3557 45.9357L30.973 47.7582H21.4195C18.5976 44.6423 16.8927 40.527 16.8927 36.0001C16.8927 26.2703 24.8 18.4512 34.5298 18.4512C44.2596 18.4512 52.1669 26.3585 52.1669 36.0883C52.1669 40.6151 50.4326 44.7305 47.64 47.8464H34.0594L33.1482 45.0832L37.3223 43.7016C38.116 43.4371 38.5275 42.614 38.263 41.8497C37.9984 41.0561 37.1753 40.6445 36.4111 40.9091L32.2369 42.2907L31.2963 39.4981L38.263 37.1759C40.1442 36.5586 41.6434 35.2652 42.5253 33.5015C43.4071 31.7378 43.5541 29.7389 42.9368 27.887C42.3195 26.0057 41.0261 24.5066 39.2624 23.6247C37.4987 22.7429 35.4998 22.5959 33.6479 23.2132L25.2703 26.0057C24.4766 26.2703 24.0651 27.0934 24.3296 27.8576L27.5925 37.6168L26.2109 38.0872C25.4173 38.3517 25.0057 39.1748 25.2703 39.9391C25.4761 40.5564 26.0346 40.9385 26.6519 40.9385C26.7988 40.9385 26.9752 40.9091 27.1222 40.8503L28.5038 40.38L29.4444 43.1725L28.0628 43.6428C27.2692 43.9074 26.8576 44.7305 27.1222 45.4947C27.328 46.112 27.8865 46.4942 28.5038 46.4942C28.6507 46.4942 28.8271 46.4648 28.9741 46.406L30.3557 45.9357ZM39.8797 32.0906C40.4088 31.0323 40.497 29.8271 40.1148 28.7101C39.7327 27.5931 38.9684 26.6818 37.9102 26.1527C36.852 25.6236 35.6762 25.5354 34.5592 25.9176L27.5925 28.2398L30.3851 36.6174L37.3517 34.2952C38.4687 33.913 39.38 33.1488 39.9091 32.0906H39.8797ZM53.6366 59.5161H15.4229C13.8062 59.5161 12.4834 58.1934 12.4834 56.5766C12.4834 54.9599 13.8062 53.6371 15.4229 53.6371H53.6366C55.2534 53.6371 56.5761 54.9599 56.5761 56.5766C56.5761 58.1934 55.2534 59.5161 53.6366 59.5161Z" fill="url(#paint1_linear_790_2318)"/>
</g>
<defs>
<filter id="filter0_dd_790_2318" x="6.4834" y="-0.395142" width="64.9111" height="66.9113" filterUnits="userSpaceOnUse" color-interpolation-filters="sRGB">
<feFlood flood-opacity="0" result="BackgroundImageFix"/>
<feColorMatrix in="SourceAlpha" type="matrix" values="0 0 0 0 0 0 0 0 0 0 0 0 0 0 0 0 0 0 127 0" result="hardAlpha"/>
<feOffset dx="-1" dy="-2"/>
<feGaussianBlur stdDeviation="2.5"/>
<feComposite in2="hardAlpha" operator="out"/>
<feColorMatrix type="matrix" values="0 0 0 0 0.917647 0 0 0 0 0.937255 0 0 0 0 0.992157 0 0 0 0.2 0"/>
<feBlend mode="normal" in2="BackgroundImageFix" result="effect1_dropShadow_790_2318"/>
<feColorMatrix in="SourceAlpha" type="matrix" values="0 0 0 0 0 0 0 0 0 0 0 0 0 0 0 0 0 0 127 0" result="hardAlpha"/>
<feOffset dx="1" dy="2"/>
<feGaussianBlur stdDeviation="2.5"/>
<feComposite in2="hardAlpha" operator="out"/>
<feColorMatrix type="matrix" values="0 0 0 0 0.231373 0 0 0 0 0.141176 0 0 0 0 0.776471 0 0 0 0.5 0"/>
<feBlend mode="normal" in2="effect1_dropShadow_790_2318" result="effect2_dropShadow_790_2318"/>
<feBlend mode="normal" in="SourceGraphic" in2="effect2_dropShadow_790_2318" result="shape"/>
</filter>
<linearGradient id="paint0_linear_790_2318" x1="-8.97507" y1="11.5373" x2="42.3618" y2="67.5283" gradientUnits="userSpaceOnUse">
<stop offset="0.613036" stop-color="white" stop-opacity="0"/>
<stop offset="0.902108" stop-color="white"/>
</linearGradient>
<linearGradient id="paint1_linear_790_2318" x1="-8.97507" y1="11.5373" x2="42.3618" y2="67.5283" gradientUnits="userSpaceOnUse">
<stop offset="0.248923" stop-color="#D2DAF0" stop-opacity="0.8"/>
<stop offset="0.548747" stop-color="#D2DAF0" stop-opacity="0"/>
</linearGradient>
<clipPath id="clip0_790_2318">
<rect width="72" height="72" fill="white"/>
</clipPath>
</defs>
</svg>
