<svg width="21" height="20" viewBox="0 0 21 20" fill="none" xmlns="http://www.w3.org/2000/svg">
<g clip-path="url(#clip0_790_20052)">
<path fill-rule="evenodd" clip-rule="evenodd" d="M17.5 4.5C17.5 4.78 17.72 5 18 5C18.28 5 18.5 4.78 18.5 4.5V3H20C20.28 3 20.5 2.78 20.5 2.5C20.5 2.22 20.28 2 20 2H18.5V0.5C18.5 0.22 18.28 0 18 0C17.72 0 17.5 0.22 17.5 0.5V2H16C15.72 2 15.5 2.22 15.5 2.5C15.5 2.78 15.72 3 16 3H17.5V4.5ZM8.58 13.38L8.79 14H5.54C4.58 12.94 4 11.54 4 10C4 6.69003 6.69 4.03003 10 4.03003C13.31 4.03003 16 6.72003 16 10.03C16 11.57 15.41 12.97 14.46 14.03H9.84L9.53 13.09L10.95 12.62C11.22 12.53 11.36 12.25 11.27 11.99C11.18 11.72 10.9 11.58 10.64 11.67L9.22 12.14L8.9 11.19L11.27 10.4C11.91 10.19 12.42 9.75003 12.72 9.15003C13.02 8.55003 13.07 7.87003 12.86 7.24003C12.65 6.60003 12.21 6.09003 11.61 5.79003C11.01 5.49003 10.33 5.44003 9.7 5.65003L6.85 6.60003C6.58 6.69003 6.44 6.97003 6.53 7.23003L7.64 10.55L7.17 10.71C6.9 10.8 6.76 11.08 6.85 11.34C6.92 11.55 7.11 11.68 7.32 11.68C7.37 11.68 7.43 11.67 7.48 11.65L7.95 11.49L8.27 12.44L7.8 12.6C7.53 12.69 7.39 12.97 7.48 13.23C7.55 13.44 7.74 13.57 7.95 13.57C8 13.57 8.06 13.56 8.11 13.54L8.58 13.38ZM11.82 8.67003C12 8.31003 12.03 7.90003 11.9 7.52003C11.77 7.14003 11.51 6.83003 11.15 6.65003C10.79 6.47003 10.39 6.44003 10.01 6.57003L7.64 7.36003L8.59 10.21L10.96 9.42003C11.34 9.29003 11.65 9.03003 11.83 8.67003H11.82ZM17.5 17C17.5 17.55 17.05 18 16.5 18H3.5C2.95 18 2.5 17.55 2.5 17C2.5 16.45 2.95 16 3.5 16H16.5C17.05 16 17.5 16.45 17.5 17Z" fill="#6170FF"/>
</g>
<defs>
<clipPath id="clip0_790_20052">
<rect width="20" height="20" fill="white" transform="translate(0.5)"/>
</clipPath>
</defs>
</svg>
