<svg width="72" height="72" viewBox="0 0 72 72" fill="none" xmlns="http://www.w3.org/2000/svg">
<g clip-path="url(#clip0_790_13141)">
<g filter="url(#filter0_dd_790_13141)">
<path fill-rule="evenodd" clip-rule="evenodd" d="M56.5766 19.8327C56.5766 20.6557 57.2233 21.3024 58.0464 21.3024C58.8695 21.3024 59.5161 20.6557 59.5161 19.8327V15.4234H63.9254C64.7485 15.4234 65.3952 14.7767 65.3952 13.9536C65.3952 13.1306 64.7485 12.4839 63.9254 12.4839H59.5161V8.0746C59.5161 7.25153 58.8695 6.60484 58.0464 6.60484C57.2233 6.60484 56.5766 7.25153 56.5766 8.0746V12.4839H52.1674C51.3443 12.4839 50.6976 13.1306 50.6976 13.9536C50.6976 14.7767 51.3443 15.4234 52.1674 15.4234H56.5766V19.8327ZM30.3561 45.9356L30.9734 47.7582H21.42C18.5981 44.6423 16.8932 40.5269 16.8932 36.0001C16.8932 26.2703 24.8005 18.4512 34.5303 18.4512C44.2601 18.4512 52.1674 26.3585 52.1674 36.0883C52.1674 40.6151 50.433 44.7304 47.6405 47.8463H34.0599L33.1487 45.0832L37.3228 43.7016C38.1165 43.4371 38.528 42.614 38.2634 41.8497C37.9989 41.0561 37.1758 40.6445 36.4115 40.9091L32.2374 42.2907L31.2968 39.4981L38.2634 37.1759C40.1447 36.5586 41.6439 35.2652 42.5257 33.5015C43.4076 31.7378 43.5546 29.7389 42.9373 27.887C42.32 26.0057 41.0266 24.5066 39.2629 23.6247C37.4992 22.7429 35.5003 22.5959 33.6484 23.2132L25.2708 26.0057C24.4771 26.2703 24.0656 27.0934 24.3301 27.8576L27.593 37.6168L26.2114 38.0871C25.4178 38.3517 25.0062 39.1748 25.2708 39.939C25.4765 40.5563 26.0351 40.9385 26.6524 40.9385C26.7993 40.9385 26.9757 40.9091 27.1227 40.8503L28.5042 40.38L29.4449 43.1725L28.0633 43.6428C27.2697 43.9074 26.8581 44.7304 27.1227 45.4947C27.3284 46.112 27.887 46.4942 28.5042 46.4942C28.6512 46.4942 28.8276 46.4648 28.9746 46.406L30.3561 45.9356ZM39.8802 32.0905C40.4093 31.0323 40.4975 29.8271 40.1153 28.7101C39.7332 27.5931 38.9689 26.6818 37.9107 26.1527C36.8525 25.6236 35.6767 25.5354 34.5597 25.9175L27.593 28.2398L30.3855 36.6174L37.3522 34.2952C38.4692 33.913 39.3805 33.1488 39.9096 32.0905H39.8802ZM53.6371 59.5161H15.4234C13.8067 59.5161 12.4839 58.1933 12.4839 56.5766C12.4839 54.9599 13.8067 53.6371 15.4234 53.6371H53.6371C55.2539 53.6371 56.5766 54.9599 56.5766 56.5766C56.5766 58.1933 55.2539 59.5161 53.6371 59.5161Z" fill="#6170FF"/>
</g>
<path fill-rule="evenodd" clip-rule="evenodd" d="M56.5766 19.8327C56.5766 20.6557 57.2233 21.3024 58.0464 21.3024C58.8695 21.3024 59.5161 20.6557 59.5161 19.8327V15.4234H63.9254C64.7485 15.4234 65.3952 14.7767 65.3952 13.9536C65.3952 13.1306 64.7485 12.4839 63.9254 12.4839H59.5161V8.0746C59.5161 7.25153 58.8695 6.60484 58.0464 6.60484C57.2233 6.60484 56.5766 7.25153 56.5766 8.0746V12.4839H52.1674C51.3443 12.4839 50.6976 13.1306 50.6976 13.9536C50.6976 14.7767 51.3443 15.4234 52.1674 15.4234H56.5766V19.8327ZM30.3561 45.9356L30.9734 47.7582H21.42C18.5981 44.6423 16.8932 40.5269 16.8932 36.0001C16.8932 26.2703 24.8005 18.4512 34.5303 18.4512C44.2601 18.4512 52.1674 26.3585 52.1674 36.0883C52.1674 40.6151 50.433 44.7304 47.6405 47.8463H34.0599L33.1487 45.0832L37.3228 43.7016C38.1165 43.4371 38.528 42.614 38.2634 41.8497C37.9989 41.0561 37.1758 40.6445 36.4115 40.9091L32.2374 42.2907L31.2968 39.4981L38.2634 37.1759C40.1447 36.5586 41.6439 35.2652 42.5257 33.5015C43.4076 31.7378 43.5546 29.7389 42.9373 27.887C42.32 26.0057 41.0266 24.5066 39.2629 23.6247C37.4992 22.7429 35.5003 22.5959 33.6484 23.2132L25.2708 26.0057C24.4771 26.2703 24.0656 27.0934 24.3301 27.8576L27.593 37.6168L26.2114 38.0871C25.4178 38.3517 25.0062 39.1748 25.2708 39.939C25.4765 40.5563 26.0351 40.9385 26.6524 40.9385C26.7993 40.9385 26.9757 40.9091 27.1227 40.8503L28.5042 40.38L29.4449 43.1725L28.0633 43.6428C27.2697 43.9074 26.8581 44.7304 27.1227 45.4947C27.3284 46.112 27.887 46.4942 28.5042 46.4942C28.6512 46.4942 28.8276 46.4648 28.9746 46.406L30.3561 45.9356ZM39.8802 32.0905C40.4093 31.0323 40.4975 29.8271 40.1153 28.7101C39.7332 27.5931 38.9689 26.6818 37.9107 26.1527C36.8525 25.6236 35.6767 25.5354 34.5597 25.9175L27.593 28.2398L30.3855 36.6174L37.3522 34.2952C38.4692 33.913 39.3805 33.1488 39.9096 32.0905H39.8802ZM53.6371 59.5161H15.4234C13.8067 59.5161 12.4839 58.1933 12.4839 56.5766C12.4839 54.9599 13.8067 53.6371 15.4234 53.6371H53.6371C55.2539 53.6371 56.5766 54.9599 56.5766 56.5766C56.5766 58.1933 55.2539 59.5161 53.6371 59.5161Z" fill="url(#paint0_linear_790_13141)"/>
<path fill-rule="evenodd" clip-rule="evenodd" d="M56.5766 19.8327C56.5766 20.6557 57.2233 21.3024 58.0464 21.3024C58.8695 21.3024 59.5161 20.6557 59.5161 19.8327V15.4234H63.9254C64.7485 15.4234 65.3952 14.7767 65.3952 13.9536C65.3952 13.1306 64.7485 12.4839 63.9254 12.4839H59.5161V8.0746C59.5161 7.25153 58.8695 6.60484 58.0464 6.60484C57.2233 6.60484 56.5766 7.25153 56.5766 8.0746V12.4839H52.1674C51.3443 12.4839 50.6976 13.1306 50.6976 13.9536C50.6976 14.7767 51.3443 15.4234 52.1674 15.4234H56.5766V19.8327ZM30.3561 45.9356L30.9734 47.7582H21.42C18.5981 44.6423 16.8932 40.5269 16.8932 36.0001C16.8932 26.2703 24.8005 18.4512 34.5303 18.4512C44.2601 18.4512 52.1674 26.3585 52.1674 36.0883C52.1674 40.6151 50.433 44.7304 47.6405 47.8463H34.0599L33.1487 45.0832L37.3228 43.7016C38.1165 43.4371 38.528 42.614 38.2634 41.8497C37.9989 41.0561 37.1758 40.6445 36.4115 40.9091L32.2374 42.2907L31.2968 39.4981L38.2634 37.1759C40.1447 36.5586 41.6439 35.2652 42.5257 33.5015C43.4076 31.7378 43.5546 29.7389 42.9373 27.887C42.32 26.0057 41.0266 24.5066 39.2629 23.6247C37.4992 22.7429 35.5003 22.5959 33.6484 23.2132L25.2708 26.0057C24.4771 26.2703 24.0656 27.0934 24.3301 27.8576L27.593 37.6168L26.2114 38.0871C25.4178 38.3517 25.0062 39.1748 25.2708 39.939C25.4765 40.5563 26.0351 40.9385 26.6524 40.9385C26.7993 40.9385 26.9757 40.9091 27.1227 40.8503L28.5042 40.38L29.4449 43.1725L28.0633 43.6428C27.2697 43.9074 26.8581 44.7304 27.1227 45.4947C27.3284 46.112 27.887 46.4942 28.5042 46.4942C28.6512 46.4942 28.8276 46.4648 28.9746 46.406L30.3561 45.9356ZM39.8802 32.0905C40.4093 31.0323 40.4975 29.8271 40.1153 28.7101C39.7332 27.5931 38.9689 26.6818 37.9107 26.1527C36.8525 25.6236 35.6767 25.5354 34.5597 25.9175L27.593 28.2398L30.3855 36.6174L37.3522 34.2952C38.4692 33.913 39.3805 33.1488 39.9096 32.0905H39.8802ZM53.6371 59.5161H15.4234C13.8067 59.5161 12.4839 58.1933 12.4839 56.5766C12.4839 54.9599 13.8067 53.6371 15.4234 53.6371H53.6371C55.2539 53.6371 56.5766 54.9599 56.5766 56.5766C56.5766 58.1933 55.2539 59.5161 53.6371 59.5161Z" fill="url(#paint1_linear_790_13141)"/>
</g>
<defs>
<filter id="filter0_dd_790_13141" x="6.48389" y="-0.395161" width="64.9113" height="66.9113" filterUnits="userSpaceOnUse" color-interpolation-filters="sRGB">
<feFlood flood-opacity="0" result="BackgroundImageFix"/>
<feColorMatrix in="SourceAlpha" type="matrix" values="0 0 0 0 0 0 0 0 0 0 0 0 0 0 0 0 0 0 127 0" result="hardAlpha"/>
<feOffset dx="-1" dy="-2"/>
<feGaussianBlur stdDeviation="2.5"/>
<feComposite in2="hardAlpha" operator="out"/>
<feColorMatrix type="matrix" values="0 0 0 0 0.917647 0 0 0 0 0.937255 0 0 0 0 0.992157 0 0 0 1 0"/>
<feBlend mode="normal" in2="BackgroundImageFix" result="effect1_dropShadow_790_13141"/>
<feColorMatrix in="SourceAlpha" type="matrix" values="0 0 0 0 0 0 0 0 0 0 0 0 0 0 0 0 0 0 127 0" result="hardAlpha"/>
<feOffset dx="1" dy="2"/>
<feGaussianBlur stdDeviation="2.5"/>
<feComposite in2="hardAlpha" operator="out"/>
<feColorMatrix type="matrix" values="0 0 0 0 0.231373 0 0 0 0 0.141176 0 0 0 0 0.776471 0 0 0 0.3 0"/>
<feBlend mode="normal" in2="effect1_dropShadow_790_13141" result="effect2_dropShadow_790_13141"/>
<feBlend mode="normal" in="SourceGraphic" in2="effect2_dropShadow_790_13141" result="shape"/>
</filter>
<linearGradient id="paint0_linear_790_13141" x1="-8.97458" y1="11.5372" x2="42.3623" y2="67.5283" gradientUnits="userSpaceOnUse">
<stop offset="0.613036" stop-color="#D2DAF0" stop-opacity="0"/>
<stop offset="0.902108" stop-color="#D2DAF0" stop-opacity="0.3"/>
</linearGradient>
<linearGradient id="paint1_linear_790_13141" x1="-8.97458" y1="11.5372" x2="42.3623" y2="67.5283" gradientUnits="userSpaceOnUse">
<stop offset="0.248923" stop-color="#5539FF" stop-opacity="0.7"/>
<stop offset="0.548747" stop-color="#5539FF" stop-opacity="0"/>
</linearGradient>
<clipPath id="clip0_790_13141">
<rect width="72" height="72" fill="white"/>
</clipPath>
</defs>
</svg>
