<svg width="33" height="33" viewBox="0 0 33 33" fill="none" xmlns="http://www.w3.org/2000/svg">
<path d="M5.83301 25.3352H27.1663" stroke="#515561" stroke-width="2" stroke-linecap="round" stroke-linejoin="round"/>
<path d="M7.16634 21.3352C6.42997 21.3352 5.83301 20.7382 5.83301 20.0018V9.88747C5.83301 8.69959 7.26919 8.1047 8.10915 8.94466L10.2235 11.059C10.7442 11.5797 11.5884 11.5797 12.1092 11.059L15.5569 7.61132C16.0775 7.09062 16.9218 7.09062 17.4425 7.61132L20.8902 11.059C21.4109 11.5797 22.2551 11.5797 22.7758 11.059L24.8902 8.94466C25.7302 8.1047 27.1663 8.69959 27.1663 9.88746V20.0018C27.1663 20.7382 26.5694 21.3352 25.833 21.3352H7.16634Z" stroke="#515561" stroke-width="2" stroke-linecap="round" stroke-linejoin="round"/>
</svg>
