<svg width="24" height="24" viewBox="0 0 24 24" fill="none" xmlns="http://www.w3.org/2000/svg">
<g clip-path="url(#clip0_790_1906)">
<path fill-rule="evenodd" clip-rule="evenodd" d="M20.4004 5.4C20.4004 5.736 20.6644 6 21.0004 6C21.3364 6 21.6004 5.736 21.6004 5.4V3.6H23.4004C23.7364 3.6 24.0004 3.336 24.0004 3C24.0004 2.664 23.7364 2.4 23.4004 2.4H21.6004V0.6C21.6004 0.264 21.3364 0 21.0004 0C20.6644 0 20.4004 0.264 20.4004 0.6V2.4H18.6004C18.2644 2.4 18.0004 2.664 18.0004 3C18.0004 3.336 18.2644 3.6 18.6004 3.6H20.4004V5.4ZM9.69639 16.056L9.94839 16.8H6.04839C4.89639 15.528 4.20039 13.848 4.20039 12C4.20039 8.02804 7.42839 4.83604 11.4004 4.83604C15.3724 4.83604 18.6004 8.06403 18.6004 12.036C18.6004 13.884 17.8924 15.564 16.7524 16.836H11.2084L10.8364 15.708L12.5404 15.144C12.8644 15.036 13.0324 14.7 12.9244 14.388C12.8164 14.064 12.4804 13.896 12.1684 14.004L10.4644 14.568L10.0804 13.428L12.9244 12.48C13.6924 12.228 14.3044 11.7 14.6644 10.98C15.0244 10.26 15.0844 9.44403 14.8324 8.68804C14.5804 7.92003 14.0524 7.30803 13.3324 6.94804C12.6124 6.58804 11.7964 6.52804 11.0404 6.78004L7.62039 7.92003C7.29639 8.02804 7.12839 8.36404 7.23639 8.67603L8.56839 12.66L8.00439 12.852C7.68039 12.96 7.51239 13.296 7.62039 13.608C7.70439 13.86 7.93239 14.016 8.18439 14.016C8.24439 14.016 8.31639 14.004 8.37639 13.98L8.94039 13.788L9.32439 14.928L8.76039 15.12C8.43639 15.228 8.26839 15.564 8.37639 15.876C8.46039 16.128 8.68839 16.284 8.94039 16.284C9.00039 16.284 9.07239 16.272 9.13239 16.248L9.69639 16.056ZM13.5844 10.404C13.8004 9.97204 13.8364 9.48003 13.6804 9.02404C13.5244 8.56804 13.2124 8.19604 12.7804 7.98004C12.3484 7.76404 11.8684 7.72804 11.4124 7.88404L8.56839 8.83204L9.70839 12.252L12.5524 11.304C13.0084 11.148 13.3804 10.836 13.5964 10.404H13.5844ZM20.4004 20.4C20.4004 21.06 19.8604 21.6 19.2004 21.6H3.60039C2.94039 21.6 2.40039 21.06 2.40039 20.4C2.40039 19.74 2.94039 19.2 3.60039 19.2H19.2004C19.8604 19.2 20.4004 19.74 20.4004 20.4Z" fill="white"/>
</g>
<defs>
<clipPath id="clip0_790_1906">
<rect width="24" height="24" fill="white"/>
</clipPath>
</defs>
</svg>
