<svg width="56" height="56" viewBox="0 0 56 56" fill="none" xmlns="http://www.w3.org/2000/svg">
<g filter="url(#filter0_dd_791_62983)">
<path d="M37.2499 13.343C28.8937 8.51305 18.1662 11.3918 13.3449 19.748C8.51492 28.1043 11.3937 38.823 19.7499 43.653C28.1062 48.483 38.8337 45.6043 43.6549 37.248C48.4762 28.8918 45.6062 18.1643 37.2499 13.343ZM40.6274 35.498C36.7687 42.183 28.1849 44.4843 21.4999 40.6255C14.8149 36.7668 12.5137 28.183 16.3724 21.498C20.0824 15.0668 28.1587 12.713 34.7124 15.968L32.7699 19.3368L27.7387 28.0518C27.5374 28.393 27.5987 28.8305 27.8787 29.1105C27.9312 29.163 27.9924 29.2155 28.0624 29.2505C28.3249 29.408 28.6662 29.408 28.9374 29.2505L37.6524 24.2193L37.7837 24.1405L41.0299 22.268C43.0424 26.328 43.0512 31.2805 40.6274 35.4893V35.498Z" fill="#6170FF"/>
</g>
<path d="M37.2504 13.3432C28.8942 8.51322 18.1667 11.392 13.3454 19.7482C8.51541 28.1045 11.3942 38.8232 19.7504 43.6532C28.1067 48.4832 38.8342 45.6045 43.6554 37.2482C48.4767 28.892 45.6067 18.1645 37.2504 13.3432ZM40.6279 35.4982C36.7692 42.1832 28.1854 44.4845 21.5004 40.6257C14.8154 36.767 12.5142 28.1832 16.3729 21.4982C20.0829 15.067 28.1592 12.7132 34.7129 15.9682L32.7704 19.337L27.7392 28.052C27.5379 28.3932 27.5992 28.8307 27.8792 29.1107C27.9317 29.1632 27.9929 29.2157 28.0629 29.2507C28.3254 29.4082 28.6667 29.4082 28.9379 29.2507L37.6529 24.2195L37.7842 24.1407L41.0304 22.2682C43.0429 26.3282 43.0517 31.2807 40.6279 35.4895V35.4982Z" fill="url(#paint0_linear_791_62983)"/>
<path d="M37.2504 13.3432C28.8942 8.51322 18.1667 11.392 13.3454 19.7482C8.51541 28.1045 11.3942 38.8232 19.7504 43.6532C28.1067 48.4832 38.8342 45.6045 43.6554 37.2482C48.4767 28.892 45.6067 18.1645 37.2504 13.3432ZM40.6279 35.4982C36.7692 42.1832 28.1854 44.4845 21.5004 40.6257C14.8154 36.767 12.5142 28.1832 16.3729 21.4982C20.0829 15.067 28.1592 12.7132 34.7129 15.9682L32.7704 19.337L27.7392 28.052C27.5379 28.3932 27.5992 28.8307 27.8792 29.1107C27.9317 29.1632 27.9929 29.2157 28.0629 29.2507C28.3254 29.4082 28.6667 29.4082 28.9379 29.2507L37.6529 24.2195L37.7842 24.1407L41.0304 22.2682C43.0429 26.3282 43.0517 31.2807 40.6279 35.4895V35.4982Z" fill="url(#paint1_linear_791_62983)"/>
<defs>
<filter id="filter0_dd_791_62983" x="5.00146" y="3.99959" width="46.9932" height="48.9969" filterUnits="userSpaceOnUse" color-interpolation-filters="sRGB">
<feFlood flood-opacity="0" result="BackgroundImageFix"/>
<feColorMatrix in="SourceAlpha" type="matrix" values="0 0 0 0 0 0 0 0 0 0 0 0 0 0 0 0 0 0 127 0" result="hardAlpha"/>
<feOffset dx="-1" dy="-2"/>
<feGaussianBlur stdDeviation="2.5"/>
<feComposite in2="hardAlpha" operator="out"/>
<feColorMatrix type="matrix" values="0 0 0 0 0.917647 0 0 0 0 0.937255 0 0 0 0 0.992157 0 0 0 1 0"/>
<feBlend mode="normal" in2="BackgroundImageFix" result="effect1_dropShadow_791_62983"/>
<feColorMatrix in="SourceAlpha" type="matrix" values="0 0 0 0 0 0 0 0 0 0 0 0 0 0 0 0 0 0 127 0" result="hardAlpha"/>
<feOffset dx="1" dy="2"/>
<feGaussianBlur stdDeviation="2.5"/>
<feComposite in2="hardAlpha" operator="out"/>
<feColorMatrix type="matrix" values="0 0 0 0 0.231373 0 0 0 0 0.141176 0 0 0 0 0.776471 0 0 0 0.3 0"/>
<feBlend mode="normal" in2="effect1_dropShadow_791_62983" result="effect2_dropShadow_791_62983"/>
<feBlend mode="normal" in="SourceGraphic" in2="effect2_dropShadow_791_62983" result="shape"/>
</filter>
<linearGradient id="paint0_linear_791_62983" x1="-3.18966" y1="14.2622" x2="30.7662" y2="51.2924" gradientUnits="userSpaceOnUse">
<stop offset="0.613036" stop-color="#D2DAF0" stop-opacity="0"/>
<stop offset="0.902108" stop-color="#D2DAF0" stop-opacity="0.3"/>
</linearGradient>
<linearGradient id="paint1_linear_791_62983" x1="-3.18966" y1="14.2622" x2="30.7662" y2="51.2924" gradientUnits="userSpaceOnUse">
<stop offset="0.248923" stop-color="#5539FF" stop-opacity="0.7"/>
<stop offset="0.548747" stop-color="#5539FF" stop-opacity="0"/>
</linearGradient>
</defs>
</svg>
