<?xml version="1.0" encoding="utf-8"?>
<!-- Generator: Adobe Illustrator 19.1.0, SVG Export Plug-In . SVG Version: 6.00 Build 0)  -->
<svg version="1.1" id="Слой_1" xmlns="http://www.w3.org/2000/svg" xmlns:xlink="http://www.w3.org/1999/xlink" x="0px" y="0px"
     viewBox="0 0 18 18" style="enable-background:new 0 0 18 18;" xml:space="preserve">
<style type="text/css">
	.st0{stroke:#FF9D45; fill:#ffffff; fill-opacity: 0;}
</style>
    <path class="st0" d="M18,6.8c-0.1-0.2-0.2-0.3-0.4-0.4L12,5.6L9.5,0.3C9.4,0.1,9.2,0,9,0l0,0C8.8,0,8.6,0.1,8.5,0.3L6,5.6L0.5,6.5
	C0.3,6.5,0.1,6.6,0,6.8C0,7,0,7.3,0.2,7.4l4,4.1l-1,5.8c0,0.2,0,0.4,0.2,0.5C3.5,18,3.7,18,3.8,18c0.1,0,0.2,0,0.2-0.1l5-2.8l5,2.8
	c0.2,0.1,0.4,0.1,0.6,0c0.2-0.1,0.2-0.3,0.2-0.5l-1-5.8l4-4.1C18,7.3,18,7,18,6.8z"/>
</svg>
