<svg xmlns="http://www.w3.org/2000/svg" xmlns:xlink="http://www.w3.org/1999/xlink" preserveAspectRatio="xMidYMid" width="22" height="30" viewBox="0 0 22 30">
  <defs>
    <style>
      .cls-1 {
        fill: #ff9d45;
        fill-rule: evenodd;
      }
    </style>
  </defs>
  <path d="M21.937,17.564 C21.601,13.090 19.564,10.286 17.767,7.812 C16.103,5.522 14.667,3.543 14.667,0.626 C14.667,0.392 14.538,0.177 14.335,0.069 C14.131,-0.039 13.885,-0.021 13.700,0.117 C11.001,2.092 8.749,5.421 7.963,8.596 C7.417,10.808 7.345,13.294 7.334,14.935 C4.842,14.391 4.278,10.578 4.272,10.537 C4.244,10.339 4.125,10.167 3.954,10.074 C3.780,9.980 3.576,9.974 3.400,10.063 C3.269,10.128 0.192,11.727 0.013,18.111 C0.000,18.324 -0.000,18.536 -0.000,18.749 C-0.000,24.952 4.935,29.998 11.000,29.998 C11.008,29.999 11.017,30.000 11.024,29.998 C11.027,29.998 11.029,29.998 11.032,29.998 C17.082,29.980 22.000,24.941 22.000,18.749 C22.000,18.437 21.937,17.564 21.937,17.564 ZM11.000,28.749 C8.978,28.749 7.333,26.957 7.333,24.754 C7.333,24.679 7.333,24.603 7.338,24.511 C7.362,23.581 7.535,22.948 7.724,22.526 C8.078,23.305 8.712,24.021 9.742,24.021 C10.080,24.021 10.353,23.741 10.353,23.396 C10.353,22.506 10.371,21.479 10.588,20.552 C10.780,19.731 11.241,18.858 11.825,18.157 C12.084,19.066 12.590,19.802 13.085,20.520 C13.792,21.548 14.523,22.610 14.651,24.423 C14.659,24.530 14.667,24.638 14.667,24.754 C14.667,26.957 13.022,28.749 11.000,28.749 Z" class="cls-1"/>
</svg>
