<svg xmlns="http://www.w3.org/2000/svg" xmlns:xlink="http://www.w3.org/1999/xlink" preserveAspectRatio="xMidYMid" width="18" height="19.219" viewBox="0 0 18 19.219">
  <defs>
    <style>
      .cls-1 {
        fill: #fff;
        fill-rule: evenodd;
      }
    </style>
  </defs>
  <path d="M17.391,15.122 L14.418,11.963 C14.958,10.813 15.319,9.473 15.319,8.132 C15.319,3.631 11.895,-0.008 7.659,-0.008 C3.424,-0.008 -0.000,3.631 -0.000,8.132 C-0.000,12.633 3.424,16.272 7.659,16.272 C8.921,16.272 10.182,15.888 11.264,15.314 L14.237,18.474 C15.139,19.432 16.490,19.432 17.391,18.474 C18.202,17.517 18.202,16.081 17.391,15.122 ZM7.659,14.356 C4.415,14.356 1.802,11.579 1.802,8.132 C1.802,4.685 4.415,1.908 7.659,1.908 C10.903,1.908 13.516,4.685 13.516,8.132 C13.516,11.579 10.903,14.356 7.659,14.356 Z" class="cls-1"/>
</svg>
