<svg xmlns="http://www.w3.org/2000/svg" xmlns:xlink="http://www.w3.org/1999/xlink" preserveAspectRatio="xMidYMid" width="14" height="25" viewBox="0 0 14 25">
  <defs>
    <style>
      .cls-1 {
        fill: #ff9d45;
        fill-rule: evenodd;
      }
    </style>
  </defs>
  <path d="M1.177,24.597 L0.396,23.777 C0.152,23.518 0.018,23.176 0.018,22.809 C0.018,22.442 0.152,22.098 0.396,21.840 L9.242,12.488 L0.387,3.123 C0.142,2.865 0.008,2.522 0.008,2.155 C0.008,1.789 0.142,1.444 0.387,1.187 L1.162,0.367 C1.667,-0.167 2.489,-0.167 2.993,0.367 L13.575,11.516 C13.819,11.774 13.990,12.117 13.990,12.486 L13.990,12.491 C13.990,12.857 13.818,13.201 13.575,13.458 L3.022,24.597 C2.778,24.855 2.444,24.996 2.097,24.997 C1.750,24.997 1.420,24.855 1.177,24.597 Z" class="cls-1"/>
</svg>
