<svg xmlns="http://www.w3.org/2000/svg" xmlns:xlink="http://www.w3.org/1999/xlink" preserveAspectRatio="xMidYMid" width="27" height="20" viewBox="0 0 27 20">
  <defs>
    <style>
      .cls-1 {
        fill: #fff;
        fill-rule: evenodd;
      }
    </style>
  </defs>
  <path d="M26.386,19.999 L0.614,19.999 C0.274,19.999 -0.000,19.719 -0.000,19.374 L-0.000,0.624 C-0.000,0.278 0.274,-0.002 0.614,-0.002 L26.386,-0.002 C26.725,-0.002 27.000,0.278 27.000,0.624 L27.000,19.374 C27.000,19.719 26.725,19.999 26.386,19.999 ZM25.521,18.749 L17.304,10.379 L13.934,13.811 C13.694,14.056 13.306,14.056 13.066,13.811 L9.696,10.379 L1.479,18.749 L25.521,18.749 ZM1.227,17.237 L8.828,9.495 L1.227,1.753 L1.227,17.237 ZM2.467,1.249 L13.500,12.485 L24.532,1.249 L2.467,1.249 ZM25.773,1.753 L18.172,9.495 L25.773,17.237 L25.773,1.753 Z" class="cls-1"/>
</svg>
