<svg xmlns="http://www.w3.org/2000/svg" xmlns:xlink="http://www.w3.org/1999/xlink" preserveAspectRatio="xMidYMid" width="16" height="16" viewBox="0 0 16 16">
  <defs>
    <style>
      .cls-1 {
        fill: #2f64ad;
        fill-rule: evenodd;
      }
    </style>
  </defs>
  <path d="M10.146,7.987 L15.542,13.382 C16.138,13.979 16.138,14.945 15.542,15.540 C14.946,16.137 13.979,16.137 13.383,15.540 L7.988,10.145 L2.593,15.540 C1.997,16.137 1.030,16.137 0.434,15.540 C-0.162,14.945 -0.162,13.979 0.434,13.382 L5.830,7.987 L0.434,2.591 C-0.162,1.996 -0.162,1.030 0.434,0.433 C1.030,-0.162 1.997,-0.162 2.593,0.433 L7.988,5.829 L13.383,0.433 C13.979,-0.162 14.946,-0.162 15.542,0.433 C16.138,1.030 16.138,1.996 15.542,2.591 L10.146,7.987 Z" class="cls-1"/>
</svg>
