<?xml version="1.0" encoding="utf-8"?>
<!-- Generator: Adobe Illustrator 19.1.0, SVG Export Plug-In . SVG Version: 6.00 Build 0)  -->
<svg version="1.1" id="Слой_1" xmlns="http://www.w3.org/2000/svg" xmlns:xlink="http://www.w3.org/1999/xlink" x="0px" y="0px"
	 viewBox="0 0 40 40" style="enable-background:new 0 0 40 40;" xml:space="preserve">
<style type="text/css">
	.st0{fill:#FF4343;}
	.st1{fill:#FFFFFF;}
</style>
<rect class="st0" width="40" height="40"/>
<g>
	<path class="st1" d="M18.6,11.1h-1.1L16.7,14l-0.8-2.8h-1.1c0.2,0.7,0.5,1.3,0.7,2c0.3,1,0.6,1.8,0.7,2.3v2.9h1.1v-2.9L18.6,11.1z
		 M21.4,16.6v-1.9c0-0.6-0.1-1-0.3-1.3c-0.3-0.4-0.7-0.6-1.1-0.6c-0.5,0-0.9,0.2-1.1,0.6c-0.2,0.3-0.3,0.7-0.3,1.3v1.9
		c0,0.6,0.1,1,0.3,1.3c0.3,0.4,0.7,0.6,1.1,0.6c0.5,0,0.9-0.2,1.1-0.6C21.4,17.6,21.4,17.2,21.4,16.6z M20.5,16.8
		c0,0.5-0.2,0.7-0.5,0.7c-0.3,0-0.5-0.2-0.5-0.7v-2.3c0-0.5,0.2-0.7,0.5-0.7c0.3,0,0.5,0.2,0.5,0.7V16.8z M25.1,18.4V13h-1v4.1
		c-0.2,0.3-0.4,0.5-0.6,0.5c-0.1,0-0.2-0.1-0.2-0.2c0,0,0-0.2,0-0.4v-4h-1v4.3c0,0.4,0,0.6,0.1,0.8c0.1,0.3,0.3,0.4,0.6,0.4
		c0.4,0,0.7-0.2,1.1-0.7v0.6H25.1z"/>
	<g>
		<path class="st1" d="M22,23.8c-0.2,0-0.3,0.1-0.5,0.2v3.3c0.2,0.2,0.3,0.2,0.5,0.2c0.3,0,0.4-0.2,0.4-0.7v-2.3
			C22.4,24.1,22.3,23.8,22,23.8z"/>
		<path class="st1" d="M25.6,23.8c-0.3,0-0.5,0.2-0.5,0.7v0.5h1v-0.5C26.1,24.1,25.9,23.8,25.6,23.8z"/>
		<path class="st1" d="M28,21.1c-0.2-0.8-0.9-1.5-1.7-1.6c-2-0.2-4-0.2-6-0.2c-2,0-4,0-6,0.2c-0.8,0.1-1.5,0.7-1.7,1.6
			c-0.3,1.2-0.3,2.5-0.3,3.8c0,1.2,0,2.6,0.3,3.8c0.2,0.9,0.9,1.5,1.7,1.6c2,0.2,4,0.2,6,0.2c2,0,4,0,6-0.2c0.8-0.1,1.5-0.7,1.7-1.6
			c0.3-1.2,0.3-2.5,0.3-3.8C28.2,23.7,28.2,22.3,28,21.1z M16.8,22.2h-1.2v6.2h-1.1v-6.2h-1.1v-1h3.4V22.2z M19.7,28.4h-1v-0.6
			c-0.4,0.4-0.7,0.7-1.1,0.7c-0.3,0-0.5-0.1-0.6-0.4c-0.1-0.2-0.1-0.4-0.1-0.8V23h1V27c0,0.2,0,0.3,0,0.4c0,0.1,0.1,0.2,0.2,0.2
			c0.2,0,0.4-0.1,0.6-0.5V23h1V28.4z M23.4,26.8c0,0.5,0,0.8-0.1,1.1c-0.1,0.4-0.4,0.6-0.8,0.6c-0.3,0-0.7-0.2-1-0.6v0.5h-1v-7.2h1
			v2.3c0.3-0.4,0.6-0.6,1-0.6c0.4,0,0.6,0.2,0.8,0.6c0.1,0.2,0.1,0.6,0.1,1.1V26.8z M27,25.9h-1.9v0.9c0,0.5,0.2,0.7,0.5,0.7
			c0.2,0,0.4-0.1,0.4-0.4c0-0.1,0-0.3,0-0.7h1v0.1c0,0.3,0,0.5,0,0.6c0,0.2-0.1,0.4-0.2,0.6c-0.3,0.4-0.7,0.6-1.2,0.6
			c-0.5,0-0.9-0.2-1.2-0.5c-0.2-0.3-0.3-0.7-0.3-1.3v-1.9c0-0.6,0.1-1,0.3-1.3c0.3-0.4,0.7-0.5,1.2-0.5c0.5,0,0.9,0.2,1.1,0.5
			c0.2,0.3,0.3,0.7,0.3,1.3V25.9z"/>
	</g>
</g>
</svg>
