<svg xmlns="http://www.w3.org/2000/svg" xmlns:xlink="http://www.w3.org/1999/xlink" preserveAspectRatio="xMidYMid" width="14" height="25" viewBox="0 0 14 25">
  <defs>
    <style>
      .cls-1 {
        fill: #ff9d45;
        fill-rule: evenodd;
      }
    </style>
  </defs>
  <path d="M12.823,24.597 L13.604,23.777 C13.847,23.518 13.982,23.176 13.982,22.809 C13.982,22.442 13.847,22.098 13.604,21.840 L4.758,12.488 L13.613,3.123 C13.857,2.865 13.991,2.522 13.991,2.155 C13.991,1.789 13.857,1.444 13.613,1.187 L12.838,0.367 C12.333,-0.167 11.511,-0.167 11.006,0.367 L0.424,11.516 C0.181,11.774 0.009,12.117 0.009,12.486 L0.009,12.491 C0.009,12.857 0.181,13.201 0.424,13.458 L10.977,24.597 C11.221,24.855 11.556,24.996 11.902,24.997 C12.249,24.997 12.580,24.855 12.823,24.597 Z" class="cls-1"/>
</svg>
