<svg xmlns="http://www.w3.org/2000/svg"
        xmlns:xlink="http://www.w3.org/1999/xlink"
        width="12px" height="8px">
    <path fill-rule="evenodd"  fill="rgb(47, 100, 173)"
          d="M11.808,1.222 L11.415,0.850 C11.291,0.733 11.127,0.669 10.951,0.669 C10.775,0.669 10.610,0.733 10.487,0.850 L6.002,5.067 L1.513,0.845 C1.390,0.729 1.225,0.665 1.049,0.665 C0.873,0.665 0.708,0.729 0.585,0.845 L0.192,1.215 C-0.064,1.456 -0.064,1.847 0.192,2.088 L5.537,7.134 C5.660,7.250 5.825,7.332 6.002,7.332 L6.004,7.332 C6.180,7.332 6.345,7.250 6.468,7.134 L11.808,2.102 C11.932,1.986 12.000,1.826 12.000,1.661 C12.000,1.495 11.932,1.338 11.808,1.222 Z"/>
</svg>
