<?xml version="1.0" encoding="utf-8"?>
<!-- Generator: Adobe Illustrator 19.1.0, SVG Export Plug-In . SVG Version: 6.00 Build 0)  -->
<svg version="1.1" id="Слой_1" xmlns="http://www.w3.org/2000/svg" xmlns:xlink="http://www.w3.org/1999/xlink" x="0px" y="0px"
	 viewBox="0 0 30 30" style="enable-background:new 0 0 30 30;" xml:space="preserve">
<style type="text/css">
	.st0{fill:#2F64AD;}
</style>
<g>
	<path class="st0" d="M15,4.4c-1.5,0-2.6,1.2-2.6,2.6c0,1.5,1.2,2.6,2.6,2.6c1.5,0,2.6-1.2,2.6-2.6C17.6,5.6,16.5,4.4,15,4.4L15,4.4
		z M15,4.4"/>
	<path class="st0" d="M15,0c-3.9,0-7,3.2-7,7C8,8.4,8.3,9.7,9,10.8l6,9.5l6-9.5C21.7,9.7,22,8.4,22,7C22,3.2,18.9,0,15,0L15,0z
		 M15,11.4c-2.4,0-4.4-2-4.4-4.4s2-4.4,4.4-4.4s4.4,2,4.4,4.4S17.4,11.4,15,11.4L15,11.4z M15,11.4"/>
	<path class="st0" d="M10.7,30h8.6l-0.7-5.3h-7.2L10.7,30z M10.7,30"/>
	<path class="st0" d="M11.6,22.9h3L12.1,19L11.6,22.9z M11.6,22.9"/>
	<path class="st0" d="M20.1,22.9h6.9l-2.2-5.3h-5.4L20.1,22.9z M20.1,22.9"/>
	<path class="st0" d="M2.9,22.9h6.9l0.7-5.3H5.1L2.9,22.9z M2.9,22.9"/>
	<path class="st0" d="M15.4,22.9h3L17.9,19L15.4,22.9z M15.4,22.9"/>
	<path class="st0" d="M9.6,24.7H2.2L0,30h9L9.6,24.7z M9.6,24.7"/>
	<path class="st0" d="M27.8,24.7h-7.4L21,30h9L27.8,24.7z M27.8,24.7"/>
</g>
</svg>
