<svg xmlns="http://www.w3.org/2000/svg" xmlns:xlink="http://www.w3.org/1999/xlink" preserveAspectRatio="xMidYMid" width="26" height="26" viewBox="0 0 26 26">
  <defs>
    <style>
      .cls-1 {
        fill: #fff;
        fill-rule: evenodd;
      }
    </style>
  </defs>
  <path d="M5.263,17.282 C7.837,20.347 10.936,22.761 14.473,24.469 C15.819,25.104 17.620,25.858 19.627,25.988 C19.751,25.993 19.870,25.998 19.994,25.998 C21.341,25.998 22.422,25.535 23.304,24.582 C23.309,24.576 23.320,24.565 23.326,24.554 C23.639,24.178 23.996,23.838 24.369,23.477 C24.624,23.235 24.883,22.981 25.132,22.723 C26.284,21.527 26.284,20.007 25.121,18.849 L21.871,15.611 C21.319,15.041 20.660,14.739 19.967,14.739 C19.275,14.739 18.610,15.041 18.042,15.606 L16.106,17.535 C15.928,17.433 15.744,17.341 15.571,17.254 C15.354,17.147 15.154,17.045 14.976,16.931 C13.213,15.816 11.612,14.362 10.082,12.492 C9.308,11.517 8.789,10.698 8.427,9.863 C8.935,9.405 9.411,8.926 9.871,8.457 C10.033,8.290 10.201,8.123 10.368,7.956 C10.952,7.374 11.266,6.701 11.266,6.017 C11.266,5.333 10.958,4.659 10.368,4.077 L8.757,2.472 C8.567,2.283 8.389,2.100 8.205,1.911 C7.848,1.545 7.475,1.168 7.107,0.828 C6.550,0.284 5.896,-0.001 5.204,-0.001 C4.517,-0.001 3.857,0.284 3.279,0.834 L1.256,2.849 C0.521,3.582 0.104,4.470 0.018,5.499 C-0.085,6.787 0.153,8.155 0.769,9.809 C1.716,12.368 3.143,14.744 5.263,17.282 ZM1.337,5.612 C1.402,4.896 1.678,4.298 2.197,3.781 L4.209,1.777 C4.522,1.474 4.868,1.319 5.204,1.319 C5.534,1.319 5.869,1.474 6.177,1.787 C6.540,2.121 6.880,2.472 7.248,2.843 C7.432,3.032 7.621,3.221 7.810,3.414 L9.422,5.020 C9.757,5.354 9.930,5.693 9.930,6.027 C9.930,6.361 9.757,6.701 9.422,7.035 C9.254,7.202 9.087,7.374 8.919,7.541 C8.416,8.048 7.946,8.527 7.426,8.985 C7.416,8.996 7.410,9.001 7.399,9.012 C6.951,9.459 7.021,9.885 7.129,10.208 C7.134,10.224 7.140,10.235 7.145,10.251 C7.562,11.248 8.140,12.196 9.043,13.327 C10.666,15.321 12.375,16.867 14.257,18.058 C14.489,18.208 14.738,18.326 14.970,18.445 C15.187,18.553 15.387,18.656 15.565,18.768 C15.587,18.779 15.603,18.790 15.625,18.801 C15.803,18.892 15.976,18.936 16.149,18.936 C16.582,18.936 16.863,18.661 16.955,18.569 L18.978,16.554 C19.291,16.242 19.632,16.074 19.967,16.074 C20.378,16.074 20.714,16.328 20.925,16.554 L24.185,19.798 C24.834,20.444 24.829,21.144 24.169,21.829 C23.942,22.071 23.704,22.302 23.450,22.545 C23.071,22.911 22.677,23.289 22.320,23.714 C21.698,24.382 20.957,24.695 20.000,24.695 C19.908,24.695 19.810,24.689 19.719,24.684 C17.945,24.571 16.295,23.882 15.057,23.294 C11.693,21.672 8.740,19.372 6.291,16.452 C4.274,14.033 2.916,11.781 2.019,9.367 C1.462,7.886 1.251,6.695 1.337,5.612 Z" class="cls-1"/>
</svg>
