<svg xmlns="http://www.w3.org/2000/svg"
     xmlns:xlink="http://www.w3.org/1999/xlink"
     width="73px" height="73px">
    <path fill="rgb(105, 150, 199)"
          d="M-0.000,-0.000 L73.000,-0.000 L73.000,73.000 L-0.000,73.000 L-0.000,-0.000 Z"/>
    <path fill="rgb(255, 255, 255)"
          d="M47.996,37.009 C46.915,35.844 45.477,35.073 43.680,34.695 L43.680,34.539 C44.930,34.018 45.909,33.204 46.619,32.097 C47.329,30.991 47.684,29.728 47.684,28.308 C47.684,27.085 47.426,26.004 46.912,25.066 C46.398,24.129 45.620,23.380 44.578,22.820 C43.614,22.299 42.583,21.958 41.482,21.795 C40.382,21.632 38.764,21.550 36.629,21.550 L26.355,21.550 L26.355,50.633 L37.996,50.633 C40.014,50.633 41.678,50.450 42.986,50.086 C44.295,49.721 45.496,49.109 46.590,48.250 C47.514,47.534 48.250,46.629 48.797,45.535 C49.344,44.441 49.617,43.172 49.617,41.726 C49.617,39.747 49.077,38.175 47.996,37.009 ZM39.930,31.453 C39.708,31.935 39.305,32.312 38.719,32.586 C38.185,32.833 37.667,32.970 37.166,32.996 C36.665,33.022 35.789,33.035 34.539,33.035 L33.621,33.035 L33.621,26.883 L34.129,26.883 C35.431,26.883 36.411,26.892 37.068,26.912 C37.726,26.931 38.295,27.045 38.777,27.254 C39.285,27.475 39.659,27.833 39.900,28.328 C40.141,28.823 40.262,29.304 40.262,29.773 C40.262,30.411 40.151,30.971 39.930,31.453 ZM41.639,43.474 C41.333,44.028 40.848,44.448 40.184,44.734 C39.428,45.060 38.686,45.235 37.957,45.261 C37.228,45.288 35.913,45.300 34.012,45.300 L33.621,45.300 L33.621,38.015 L34.969,38.015 C36.271,38.015 37.309,38.025 38.084,38.045 C38.859,38.064 39.467,38.159 39.910,38.328 C40.639,38.588 41.186,38.972 41.551,39.480 C41.915,39.988 42.098,40.691 42.098,41.590 C42.098,42.293 41.944,42.921 41.639,43.474 Z"/>
</svg>
