<svg xmlns="http://www.w3.org/2000/svg" xmlns:xlink="http://www.w3.org/1999/xlink" preserveAspectRatio="xMidYMid" width="20" height="20" viewBox="0 0 20 20">
  <defs>
    <style>
      .cls-1 {
        fill: #ff9d45;
        fill-rule: evenodd;
      }
    </style>
  </defs>
  <path d="M18.166,20.000 L1.833,20.000 C0.820,20.000 -0.000,19.186 -0.000,18.196 L-0.000,4.018 C-0.000,3.046 0.803,2.255 1.780,2.226 L1.780,4.646 C1.780,5.739 2.687,6.620 3.805,6.620 L5.083,6.620 C6.201,6.620 7.120,5.739 7.120,4.646 L7.120,2.218 L12.879,2.218 L12.879,4.646 C12.879,5.739 13.798,6.620 14.917,6.620 L16.194,6.620 C17.312,6.620 18.220,5.739 18.220,4.646 L18.220,2.226 C19.197,2.255 20.000,3.046 20.000,4.018 L20.000,18.196 C20.000,19.185 19.178,20.000 18.166,20.000 ZM17.626,17.313 L17.626,9.990 C17.626,9.562 17.271,9.214 16.834,9.214 L3.131,9.214 C2.693,9.214 2.339,9.562 2.339,9.990 L2.339,17.313 C2.339,17.741 2.693,18.088 3.131,18.088 L16.834,18.088 C17.271,18.088 17.626,17.741 17.626,17.313 L17.626,17.313 ZM14.859,17.030 L13.239,17.030 C12.982,17.030 12.774,16.827 12.774,16.577 L12.774,14.993 C12.774,14.742 12.982,14.539 13.239,14.539 L14.859,14.539 C15.115,14.539 15.323,14.742 15.323,14.993 L15.323,16.577 C15.323,16.827 15.115,17.030 14.859,17.030 ZM14.859,13.072 L13.239,13.072 C12.982,13.072 12.774,12.868 12.774,12.617 L12.774,11.033 C12.774,10.783 12.982,10.580 13.239,10.580 L14.859,10.580 C15.115,10.580 15.323,10.783 15.323,11.033 L15.323,12.617 C15.323,12.868 15.115,13.072 14.859,13.072 ZM10.810,17.030 L9.190,17.030 C8.934,17.030 8.726,16.827 8.726,16.577 L8.726,14.993 C8.726,14.742 8.934,14.539 9.190,14.539 L10.810,14.539 C11.066,14.539 11.274,14.742 11.274,14.993 L11.274,16.577 C11.274,16.827 11.066,17.030 10.810,17.030 ZM10.810,13.072 L9.190,13.072 C8.934,13.072 8.726,12.868 8.726,12.617 L8.726,11.033 C8.726,10.783 8.934,10.580 9.190,10.580 L10.810,10.580 C11.066,10.580 11.274,10.783 11.274,11.033 L11.274,12.617 C11.274,12.868 11.066,13.072 10.810,13.072 ZM6.761,17.030 L5.141,17.030 C4.885,17.030 4.677,16.827 4.677,16.577 L4.677,14.993 C4.677,14.742 4.885,14.539 5.141,14.539 L6.761,14.539 C7.017,14.539 7.225,14.742 7.225,14.993 L7.225,16.577 C7.225,16.827 7.017,17.030 6.761,17.030 ZM6.761,13.072 L5.141,13.072 C4.885,13.072 4.677,12.868 4.677,12.617 L4.677,11.033 C4.677,10.783 4.885,10.580 5.141,10.580 L6.761,10.580 C7.017,10.580 7.225,10.783 7.225,11.033 L7.225,12.617 C7.225,12.868 7.017,13.072 6.761,13.072 ZM16.164,5.324 L14.900,5.324 C14.517,5.324 14.206,5.020 14.206,4.645 L14.206,0.679 C14.206,0.304 14.517,-0.000 14.900,-0.000 L16.164,-0.000 C16.548,-0.000 16.859,0.304 16.859,0.679 L16.859,4.645 C16.859,5.020 16.548,5.324 16.164,5.324 ZM5.065,5.324 L3.801,5.324 C3.417,5.324 3.106,5.020 3.106,4.645 L3.106,0.679 C3.106,0.304 3.417,-0.000 3.801,-0.000 L5.065,-0.000 C5.448,-0.000 5.759,0.304 5.759,0.679 L5.759,4.645 C5.759,5.020 5.448,5.324 5.065,5.324 Z" class="cls-1"/>
</svg>
