<svg xmlns="http://www.w3.org/2000/svg" xmlns:xlink="http://www.w3.org/1999/xlink" preserveAspectRatio="xMidYMid" width="16" height="22" viewBox="0 0 16 22">
  <defs>
    <style>
      .cls-1 {
        fill: #fff;
        fill-rule: evenodd;
      }
    </style>
  </defs>
  <path d="M15.954,12.880 C15.710,9.599 14.228,7.543 12.922,5.728 C11.711,4.050 10.666,2.598 10.666,0.459 C10.666,0.287 10.573,0.130 10.425,0.051 C10.277,-0.029 10.098,-0.016 9.963,0.086 C8.001,1.534 6.363,3.975 5.791,6.304 C5.394,7.925 5.341,9.748 5.334,10.952 C3.521,10.553 3.111,7.757 3.107,7.727 C3.086,7.582 3.000,7.455 2.875,7.387 C2.749,7.319 2.600,7.314 2.473,7.379 C2.377,7.427 0.139,8.599 0.009,13.281 C0.000,13.437 -0.000,13.593 -0.000,13.749 C-0.000,18.298 3.589,21.999 8.000,21.999 C8.006,21.999 8.012,22.000 8.018,21.999 C8.019,21.999 8.021,21.999 8.023,21.999 C12.423,21.986 16.000,18.290 16.000,13.749 C16.000,13.520 15.954,12.880 15.954,12.880 ZM8.000,21.082 C6.529,21.082 5.333,19.768 5.333,18.153 C5.333,18.098 5.333,18.042 5.337,17.974 C5.354,17.293 5.480,16.828 5.617,16.519 C5.875,17.090 6.336,17.615 7.085,17.615 C7.331,17.615 7.529,17.410 7.529,17.157 C7.529,16.504 7.542,15.751 7.700,15.072 C7.840,14.469 8.175,13.829 8.600,13.315 C8.788,13.982 9.157,14.521 9.516,15.048 C10.030,15.802 10.562,16.581 10.655,17.910 C10.661,17.988 10.666,18.068 10.666,18.153 C10.666,19.768 9.470,21.082 8.000,21.082 Z" class="cls-1"/>
</svg>
