<?xml version="1.0" encoding="utf-8"?>
<!-- Generator: Adobe Illustrator 19.1.0, SVG Export Plug-In . SVG Version: 6.00 Build 0)  -->
<svg version="1.1" id="Слой_1" xmlns="http://www.w3.org/2000/svg" xmlns:xlink="http://www.w3.org/1999/xlink" x="0px" y="0px"
	 viewBox="0 0 22 22" style="enable-background:new 0 0 22 22;" xml:space="preserve">
<style type="text/css">
	.st0{fill:#FFFFFF;}
</style>
<path class="st0" d="M22,8.4c-0.1-0.2-0.3-0.4-0.5-0.5l-6.8-1l-3.1-6.5C11.5,0.1,11.2,0,11,0l0,0c-0.2,0-0.5,0.1-0.6,0.4L7.4,6.9
	l-6.8,1C0.3,7.9,0.1,8.1,0,8.4C0,8.6,0,8.9,0.2,9l4.9,5L4,21.2c0,0.3,0.1,0.5,0.3,0.7C4.3,22,4.5,22,4.6,22c0.1,0,0.2,0,0.3-0.1
	l6.1-3.4l6.1,3.4c0.2,0.1,0.5,0.1,0.7-0.1c0.2-0.2,0.3-0.4,0.3-0.7l-1.2-7.1l4.9-5C22,8.9,22,8.6,22,8.4z"/>
</svg>
