<svg xmlns="http://www.w3.org/2000/svg"
        xmlns:xlink="http://www.w3.org/1999/xlink"
        width="18px" height="10px">
    <path fill-rule="evenodd"  fill="rgb(255, 134, 5)"
          d="M17.712,0.834 L17.122,0.276 C16.937,0.101 16.690,0.005 16.426,0.005 C16.162,0.005 15.915,0.101 15.730,0.276 L9.004,6.602 L2.270,0.269 C2.085,0.094 1.838,-0.002 1.574,-0.002 C1.310,-0.002 1.063,0.094 0.878,0.269 L0.288,0.824 C-0.096,1.185 -0.096,1.772 0.288,2.133 L8.305,9.701 C8.490,9.875 8.737,9.998 9.003,9.998 L9.006,9.998 C9.270,9.998 9.517,9.875 9.702,9.701 L17.712,2.154 C17.898,1.979 17.999,1.741 18.000,1.493 C18.000,1.244 17.898,1.008 17.712,0.834 Z"/>
</svg>
