<svg xmlns="http://www.w3.org/2000/svg"
        xmlns:xlink="http://www.w3.org/1999/xlink"
        width="26px" height="14px">

        <path fill-rule="evenodd"  fill="#2f64ad"
              d="M25.585,1.185 L24.733,0.405 C24.465,0.162 24.108,0.027 23.727,0.027 C23.346,0.027 22.989,0.162 22.721,0.405 L13.005,9.236 L3.279,0.396 C3.011,0.153 2.654,0.019 2.273,0.019 C1.892,0.019 1.535,0.153 1.267,0.396 L0.415,1.170 C-0.140,1.675 -0.140,2.495 0.415,2.999 L11.996,13.561 C12.264,13.804 12.620,13.975 13.005,13.975 L13.009,13.975 C13.390,13.975 13.747,13.804 14.014,13.561 L25.585,3.027 C25.853,2.784 26.000,2.450 26.000,2.103 C26.000,1.757 25.853,1.428 25.585,1.185 Z"/>
</svg>
