<svg xmlns="http://www.w3.org/2000/svg"
        xmlns:xlink="http://www.w3.org/1999/xlink"
        width="26px" height="14px">
        <path fill-rule="evenodd"  fill="#2f64ad"
              d="M25.584,12.841 L24.731,13.624 C24.463,13.868 24.106,14.003 23.724,14.003 C23.343,14.003 22.985,13.868 22.717,13.624 L12.990,4.754 L3.251,13.633 C2.983,13.877 2.626,14.011 2.245,14.011 C1.863,14.011 1.505,13.877 1.237,13.633 L0.384,12.856 C-0.171,12.348 -0.171,11.525 0.384,11.019 L11.979,0.408 C12.247,0.165 12.604,-0.007 12.989,-0.007 L12.993,-0.007 C13.375,-0.007 13.732,0.165 14.000,0.408 L25.584,10.990 C25.853,11.234 26.000,11.570 26.000,11.919 C26.000,12.266 25.853,12.596 25.584,12.841 Z"/>
</svg>
