<svg xmlns="http://www.w3.org/2000/svg"
        xmlns:xlink="http://www.w3.org/1999/xlink"
        width="73px" height="73px">
        <path fill-rule="evenodd"  fill="#496194"
              d="M-0.000,-0.000 L73.000,-0.000 L73.000,73.000 L-0.000,73.000 L-0.000,-0.000 Z"/>

    <path fill-rule="evenodd"  fill="rgb(255, 255, 255)"
          d="M45.976,21.164 C44.182,20.796 42.802,20.520 40.915,20.520 C35.487,20.520 33.324,23.097 33.324,27.697 L33.324,31.055 L29.920,31.055 L29.920,36.484 L33.324,36.484 L33.324,53.000 L39.949,53.000 L39.949,36.484 L44.780,36.484 L45.240,31.055 L39.949,31.055 L39.949,28.433 C39.949,26.961 40.087,26.041 42.203,26.041 C42.986,26.041 44.228,26.179 45.148,26.363 L45.976,21.164 Z"/>
</svg>
