<svg xmlns="http://www.w3.org/2000/svg" xmlns:xlink="http://www.w3.org/1999/xlink" preserveAspectRatio="xMidYMid" width="21" height="24" viewBox="0 0 21 24">
  <defs>
    <style>
      .cls-1 {
        fill: #fff;
        fill-rule: evenodd;
      }
    </style>
  </defs>
  <path d="M20.334,13.106 C20.014,13.905 19.501,14.688 18.812,15.426 L11.191,23.703 C11.018,23.891 10.766,23.999 10.500,23.999 C10.234,23.999 9.981,23.891 9.809,23.703 L2.185,15.424 C1.500,14.690 0.987,13.907 0.664,13.101 C-0.543,10.150 -0.088,6.810 1.884,4.171 C3.866,1.520 7.006,-0.001 10.500,-0.001 C13.993,-0.001 17.134,1.520 19.116,4.171 C21.088,6.810 21.543,10.150 20.334,13.106 ZM17.622,5.126 C15.984,2.934 13.388,1.677 10.500,1.677 C7.611,1.677 5.015,2.934 3.377,5.126 C1.744,7.310 1.366,10.073 2.364,12.514 C2.613,13.136 3.016,13.745 3.563,14.331 L10.500,21.865 L17.433,14.337 C17.434,14.335 17.435,14.333 17.437,14.331 C17.984,13.745 18.387,13.135 18.634,12.519 C19.635,10.073 19.255,7.310 17.622,5.126 ZM10.500,14.376 C7.697,14.376 5.417,12.268 5.417,9.678 C5.417,7.086 7.698,4.978 10.500,4.978 C13.302,4.978 15.582,7.086 15.582,9.678 C15.582,12.268 13.303,14.376 10.500,14.376 ZM10.500,6.656 C8.698,6.656 7.233,8.011 7.233,9.677 C7.233,11.343 8.698,12.698 10.500,12.698 C12.301,12.698 13.767,11.343 13.767,9.677 C13.767,8.011 12.301,6.656 10.500,6.656 Z" class="cls-1"/>
</svg>
