<svg width="340" height="373" viewBox="0 0 340 373" fill="none" xmlns="http://www.w3.org/2000/svg">
<path fill-rule="evenodd" clip-rule="evenodd" d="M-91.58 93.789C-91.58 6.87691 -21.1254 -63.5791 65.785 -63.5791C152.695 -63.5791 223.15 6.87701 223.15 93.789C223.15 180.7 152.694 251.157 65.785 251.157C-21.1253 251.157 -91.58 180.7 -91.58 93.789ZM65.785 -112C-47.867 -112 -140 -19.8652 -140 93.789C-140 207.442 -47.8671 299.578 65.785 299.578C113.889 299.578 158.138 283.072 193.178 255.414L278.671 340.909C288.125 350.364 303.454 350.364 312.909 340.909C322.364 331.454 322.364 316.125 312.909 306.67L227.415 221.175C255.067 186.136 271.57 141.889 271.57 93.789C271.57 -19.8653 179.436 -112 65.785 -112Z" fill="url(#paint0_linear_791_56675)"/>
<path fill-rule="evenodd" clip-rule="evenodd" d="M-91.58 93.789C-91.58 6.87691 -21.1254 -63.5791 65.785 -63.5791C152.695 -63.5791 223.15 6.87701 223.15 93.789C223.15 180.7 152.694 251.157 65.785 251.157C-21.1253 251.157 -91.58 180.7 -91.58 93.789ZM65.785 -112C-47.867 -112 -140 -19.8652 -140 93.789C-140 207.442 -47.8671 299.578 65.785 299.578C113.889 299.578 158.138 283.072 193.178 255.414L278.671 340.909C288.125 350.364 303.454 350.364 312.909 340.909C322.364 331.454 322.364 316.125 312.909 306.67L227.415 221.175C255.067 186.136 271.57 141.889 271.57 93.789C271.57 -19.8653 179.436 -112 65.785 -112Z" fill="url(#paint1_linear_791_56675)"/>
<g filter="url(#filter0_dd_791_56675)">
<path fill-rule="evenodd" clip-rule="evenodd" d="M-91.58 93.789C-91.58 6.87691 -21.1254 -63.5791 65.785 -63.5791C152.695 -63.5791 223.15 6.87701 223.15 93.789C223.15 180.7 152.694 251.157 65.785 251.157C-21.1253 251.157 -91.58 180.7 -91.58 93.789ZM65.785 -112C-47.867 -112 -140 -19.8652 -140 93.789C-140 207.442 -47.8671 299.578 65.785 299.578C113.889 299.578 158.138 283.072 193.178 255.414L278.671 340.909C288.125 350.364 303.454 350.364 312.909 340.909C322.364 331.454 322.364 316.125 312.909 306.67L227.415 221.175C255.067 186.136 271.57 141.889 271.57 93.789C271.57 -19.8653 179.436 -112 65.785 -112Z" fill="#EAEFFD"/>
</g>
<defs>
<filter id="filter0_dd_791_56675" x="-160" y="-137" width="500" height="510" filterUnits="userSpaceOnUse" color-interpolation-filters="sRGB">
<feFlood flood-opacity="0" result="BackgroundImageFix"/>
<feColorMatrix in="SourceAlpha" type="matrix" values="0 0 0 0 0 0 0 0 0 0 0 0 0 0 0 0 0 0 127 0" result="hardAlpha"/>
<feOffset dx="-5" dy="-10"/>
<feGaussianBlur stdDeviation="7.5"/>
<feComposite in2="hardAlpha" operator="out"/>
<feColorMatrix type="matrix" values="0 0 0 0 1 0 0 0 0 1 0 0 0 0 1 0 0 0 0.3 0"/>
<feBlend mode="normal" in2="BackgroundImageFix" result="effect1_dropShadow_791_56675"/>
<feColorMatrix in="SourceAlpha" type="matrix" values="0 0 0 0 0 0 0 0 0 0 0 0 0 0 0 0 0 0 127 0" result="hardAlpha"/>
<feOffset dx="5" dy="10"/>
<feGaussianBlur stdDeviation="7.5"/>
<feComposite in2="hardAlpha" operator="out"/>
<feColorMatrix type="matrix" values="0 0 0 0 0.380392 0 0 0 0 0.439216 0 0 0 0 1 0 0 0 0.2 0"/>
<feBlend mode="normal" in2="effect1_dropShadow_791_56675" result="effect2_dropShadow_791_56675"/>
<feBlend mode="normal" in="SourceGraphic" in2="effect2_dropShadow_791_56675" result="shape"/>
</filter>
<linearGradient id="paint0_linear_791_56675" x1="-326.556" y1="-69.1186" x2="119.757" y2="417.656" gradientUnits="userSpaceOnUse">
<stop offset="0.679472" stop-color="#EAEFFD"/>
<stop offset="1" stop-color="white" stop-opacity="0.5"/>
</linearGradient>
<linearGradient id="paint1_linear_791_56675" x1="-326.556" y1="-69.1186" x2="119.757" y2="417.656" gradientUnits="userSpaceOnUse">
<stop offset="0.196459" stop-color="#6170FF" stop-opacity="0.1"/>
<stop offset="0.697732" stop-color="#EAEFFD" stop-opacity="0"/>
</linearGradient>
</defs>
</svg>
