<svg width="489" height="499" viewBox="0 0 489 499" fill="none" xmlns="http://www.w3.org/2000/svg">
<g filter="url(#filter0_dd_791_56682)">
<path fill-rule="evenodd" clip-rule="evenodd" d="M67.2621 225.868C67.2621 141.034 136.032 72.2631 220.864 72.2631C305.695 72.2631 374.466 141.034 374.466 225.868C374.466 310.701 305.695 379.473 220.864 379.473C136.032 379.473 67.2621 310.701 67.2621 225.868ZM220.864 25C109.93 25 20 114.932 20 225.868C20 336.803 109.93 426.736 220.864 426.736C267.818 426.736 311.009 410.625 345.211 383.629L428.659 467.078C437.888 476.307 452.85 476.307 462.079 467.078C471.307 457.85 471.307 442.887 462.079 433.658L378.629 350.207C405.62 316.006 421.728 272.818 421.728 225.868C421.728 114.931 331.797 25 220.864 25Z" fill="#EAEFFD"/>
</g>
<defs>
<filter id="filter0_dd_791_56682" x="0" y="0" width="489" height="499" filterUnits="userSpaceOnUse" color-interpolation-filters="sRGB">
<feFlood flood-opacity="0" result="BackgroundImageFix"/>
<feColorMatrix in="SourceAlpha" type="matrix" values="0 0 0 0 0 0 0 0 0 0 0 0 0 0 0 0 0 0 127 0" result="hardAlpha"/>
<feOffset dx="-5" dy="-10"/>
<feGaussianBlur stdDeviation="7.5"/>
<feComposite in2="hardAlpha" operator="out"/>
<feColorMatrix type="matrix" values="0 0 0 0 1 0 0 0 0 1 0 0 0 0 1 0 0 0 0.3 0"/>
<feBlend mode="normal" in2="BackgroundImageFix" result="effect1_dropShadow_791_56682"/>
<feColorMatrix in="SourceAlpha" type="matrix" values="0 0 0 0 0 0 0 0 0 0 0 0 0 0 0 0 0 0 127 0" result="hardAlpha"/>
<feOffset dx="5" dy="10"/>
<feGaussianBlur stdDeviation="7.5"/>
<feComposite in2="hardAlpha" operator="out"/>
<feColorMatrix type="matrix" values="0 0 0 0 0.380392 0 0 0 0 0.439216 0 0 0 0 1 0 0 0 0.2 0"/>
<feBlend mode="normal" in2="effect1_dropShadow_791_56682" result="effect2_dropShadow_791_56682"/>
<feBlend mode="normal" in="SourceGraphic" in2="effect2_dropShadow_791_56682" result="shape"/>
</filter>
</defs>
</svg>
