<svg width="24" height="25" viewBox="0 0 24 25" fill="none" xmlns="http://www.w3.org/2000/svg">
<path d="M12 21.25C16.9706 21.25 21 17.2206 21 12.25C21 7.27944 16.9706 3.25 12 3.25C7.02944 3.25 3 7.27944 3 12.25C3 17.2206 7.02944 21.25 12 21.25Z" stroke="#6170FF" stroke-width="2" stroke-linecap="round" stroke-linejoin="round"/>
<path d="M18 18.9523C18 15.9206 14.5 15.25 12 15.25C9.5 15.25 6 15.9206 6 18.9523" stroke="#6170FF" stroke-width="2" stroke-linecap="round" stroke-linejoin="round"/>
<path d="M12 12.25C13.6569 12.25 15 10.9069 15 9.25C15 7.59315 13.6569 6.25 12 6.25C10.3431 6.25 9 7.59315 9 9.25C9 10.9069 10.3431 12.25 12 12.25Z" stroke="#6170FF" stroke-width="2" stroke-linecap="round" stroke-linejoin="round"/>
</svg>
