<svg width="24" height="25" viewBox="0 0 24 25" fill="none" xmlns="http://www.w3.org/2000/svg">
<path d="M4 19.25H20" stroke="#3B24C6" stroke-width="2" stroke-linecap="round" stroke-linejoin="round"/>
<path d="M5 16.25C4.44772 16.25 4 15.8023 4 15.25V7.66419C4 6.77328 5.07714 6.32711 5.70711 6.95708L7.29289 8.54287C7.68342 8.93339 8.31658 8.93339 8.70711 8.54287L11.2929 5.95708C11.6834 5.56655 12.3166 5.56655 12.7071 5.95708L15.2929 8.54287C15.6834 8.93339 16.3166 8.93339 16.7071 8.54287L18.2929 6.95708C18.9229 6.32711 20 6.77328 20 7.66418V15.25C20 15.8023 19.5523 16.25 19 16.25H5Z" stroke="#3B24C6" stroke-width="2" stroke-linecap="round" stroke-linejoin="round"/>
</svg>
