<?xml version="1.0" encoding="utf-8"?>
<!-- Generator: Adobe Illustrator 16.0.0, SVG Export Plug-In . SVG Version: 6.00 Build 0)  -->
<!DOCTYPE svg PUBLIC "-//W3C//DTD SVG 1.1//EN" "http://www.w3.org/Graphics/SVG/1.1/DTD/svg11.dtd">
<svg version="1.1" id="Слой_1" xmlns="http://www.w3.org/2000/svg" xmlns:xlink="http://www.w3.org/1999/xlink" x="0px" y="0px"
	 width="288.449px" height="68.699px" viewBox="0 0 288.449 68.699" enable-background="new 0 0 288.449 68.699"
	 xml:space="preserve">
<g>
	<rect x="0.977" fill="#3164AD" width="64.348" height="50.25"/>
	<path fill="#FFFFFF" d="M13.574,42.523c1.949,0.902,4.278,1.426,6.977,1.426c2.176,0,4.199-0.223,6.074-0.523
		c1.875-0.375,3.898-0.977,5.926-1.801l0.222-0.074v-12c0-1.5-0.375-2.551-1.125-3.074c-0.75-0.528-1.648-0.75-2.847-0.75h-7.426
		v3.296h5.699v10.653c-0.898,0.301-1.801,0.449-2.773,0.523c-1.051,0.074-2.028,0.074-2.778,0.074c-1.574,0-3-0.297-4.199-0.824
		c-1.199-0.523-2.324-1.426-3.148-2.625c-0.903-1.199-1.574-2.699-2.028-4.574c-0.449-1.875-0.671-4.125-0.671-6.75
		c0-2.398,0.222-4.5,0.671-6.375c0.454-1.875,1.125-3.449,2.028-4.727c0.824-1.273,1.875-2.25,3.074-2.921
		c1.199-0.676,2.551-1.051,4.051-1.051c0.597,0,1.199,0,1.648,0.074c0.449,0.074,0.903,0.148,1.278,0.227
		c0.375,0.074,0.824,0.222,1.273,0.375c0.375,0.148,0.824,0.296,1.199,0.449v5.398h4.574v-5.847c0-0.602-0.148-1.204-0.375-1.653
		C30.676,9,30.227,8.625,29.625,8.324c-1.426-0.597-2.852-1.051-4.273-1.273C24,6.824,22.5,6.676,20.926,6.676
		c-2.25,0-4.352,0.375-6.301,1.199c-1.949,0.75-3.602,1.949-4.949,3.523c-1.352,1.579-2.477,3.528-3.227,5.852
		s-1.125,5.102-1.125,8.25c0,2.699,0.301,5.176,0.824,7.426c0.602,2.25,1.5,4.273,2.704,5.926
		C9.977,40.273,11.625,41.551,13.574,42.523L13.574,42.523z M13.574,42.523"/>
	<path fill="#FFFFFF" d="M41.773,40.352c0.977,1.125,2.176,2.023,3.602,2.547c1.426,0.602,2.926,0.828,4.648,0.828
		c1.727,0,3.227-0.301,4.653-0.828c1.426-0.598,2.625-1.422,3.597-2.547c0.977-1.125,1.727-2.551,2.329-4.203
		c0.523-1.648,0.824-3.523,0.824-5.699c0-2.176-0.301-4.125-0.824-5.773c-0.528-1.653-1.352-3.074-2.403-4.199
		c-1.051-1.125-2.25-1.954-3.597-2.551c-1.352-0.528-2.926-0.824-4.5-0.824c-1.653,0-3.153,0.296-4.5,0.824
		c-1.352,0.523-2.625,1.426-3.602,2.551c-1.051,1.125-1.801,2.546-2.398,4.199c-0.528,1.648-0.829,3.597-0.829,5.773
		c0,2.176,0.301,4.051,0.829,5.699C39.977,37.801,40.727,39.227,41.773,40.352L41.773,40.352z M44.398,30.449
		c0-1.801,0.153-3.375,0.454-4.648c0.296-1.278,0.75-2.324,1.199-3.153c0.523-0.75,1.125-1.347,1.722-1.722
		c0.676-0.375,1.352-0.528,2.102-0.528s1.5,0.153,2.176,0.528c0.676,0.375,1.273,0.898,1.801,1.722
		c0.523,0.829,0.898,1.875,1.199,3.153c0.301,1.273,0.449,2.847,0.449,4.648c0,1.875-0.148,3.449-0.449,4.727
		c-0.301,1.273-0.676,2.324-1.199,3.148c-0.454,0.75-1.051,1.352-1.727,1.652c-1.352,0.672-3.074,0.672-4.426,0
		c-0.676-0.301-1.273-0.902-1.722-1.652c-0.528-0.824-0.903-1.875-1.204-3.148C44.551,33.898,44.398,32.324,44.398,30.449
		L44.398,30.449z M44.398,30.449"/>
	<path fill="#FFFFFF" d="M231,43.727c1.051,0,2.023-0.375,2.773-1.203c0.75-0.824,1.125-1.797,1.125-2.922s-0.375-2.102-1.125-2.926
		s-1.648-1.199-2.773-1.199s-2.023,0.375-2.773,1.199s-1.125,1.801-1.125,2.926s0.375,2.098,1.125,2.922
		C228.977,43.352,229.875,43.727,231,43.727L231,43.727z M231,43.727"/>
	<path fill="#3164AD" d="M77.398,43.125h5.926V27.602h3.301l7.949,12.972c0.528,0.902,1.125,1.5,1.875,1.875
		s1.801,0.602,3.375,0.602h3.676L92.699,27.074c0.903-0.148,1.875-0.449,2.778-0.898c1.125-0.528,2.097-1.199,3-2.028
		c0.898-0.824,1.648-1.875,2.25-3.074c0.597-1.199,0.898-2.551,0.898-4.125c0-1.949-0.375-3.597-1.051-4.875
		c-0.676-1.273-1.648-2.25-2.847-3c-1.125-0.75-2.477-1.273-4.051-1.5c-1.5-0.301-3.074-0.375-4.653-0.375H74.102v3.074h3.296
		V43.125z M83.25,24V11.023h5.324c0.676,0,1.352,0.079,2.176,0.227s1.574,0.449,2.25,0.898c0.676,0.454,1.273,1.051,1.727,1.875
		c0.449,0.75,0.671,1.875,0.671,3.227c0,1.199-0.222,2.25-0.671,3.074c-0.454,0.824-1.051,1.574-1.727,2.102
		c-0.676,0.523-1.5,0.972-2.324,1.199C89.773,23.852,88.949,24,88.199,24H83.25z M83.25,24"/>
	<path fill="#3164AD" d="M110.023,40.352c0.977,1.125,2.176,2.023,3.602,2.547c1.426,0.602,2.926,0.828,4.648,0.828
		c1.727,0,3.227-0.301,4.653-0.828c1.426-0.598,2.625-1.422,3.597-2.547c0.977-1.125,1.727-2.551,2.329-4.203
		c0.523-1.648,0.824-3.523,0.824-5.699c0-2.176-0.301-4.125-0.824-5.773c-0.528-1.653-1.352-3.074-2.403-4.199
		c-1.051-1.125-2.25-1.954-3.597-2.551c-1.352-0.528-2.926-0.824-4.5-0.824c-1.653,0-3.153,0.296-4.5,0.824
		c-1.352,0.523-2.625,1.426-3.602,2.551c-1.051,1.125-1.801,2.546-2.398,4.199c-0.528,1.648-0.829,3.597-0.829,5.773
		c0,2.176,0.301,4.051,0.829,5.699C108.227,37.801,109.051,39.227,110.023,40.352L110.023,40.352z M112.648,30.449
		c0-1.801,0.153-3.375,0.454-4.648c0.296-1.278,0.75-2.324,1.199-3.153c0.523-0.75,1.125-1.347,1.722-1.722
		c0.676-0.375,1.352-0.528,2.102-0.528s1.5,0.153,2.176,0.528c0.676,0.375,1.273,0.898,1.801,1.722
		c0.523,0.829,0.898,1.875,1.199,3.153c0.301,1.273,0.449,2.847,0.449,4.648c0,1.875-0.148,3.449-0.449,4.727
		c-0.301,1.273-0.676,2.324-1.199,3.148c-0.454,0.75-1.051,1.352-1.727,1.652c-1.352,0.672-3.074,0.672-4.426,0
		c-0.676-0.301-1.273-0.902-1.722-1.652c-0.528-0.824-0.903-1.875-1.204-3.148C112.801,33.898,112.648,32.324,112.648,30.449
		L112.648,30.449z M112.648,30.449"/>
	<path fill="#3164AD" d="M137.176,40.352c0.972,1.125,2.176,2.023,3.597,2.547c1.426,0.602,2.926,0.828,4.653,0.828
		c1.723,0,3.223-0.301,4.648-0.828c1.426-0.598,2.625-1.422,3.602-2.547c0.973-1.125,1.723-2.551,2.324-4.203
		c0.523-1.648,0.824-3.523,0.824-5.699c0-2.176-0.301-4.125-0.824-5.773c-0.523-1.653-1.352-3.074-2.398-4.199
		c-1.051-1.125-2.25-1.954-3.602-2.551c-1.352-0.528-2.926-0.824-4.5-0.824c-1.648,0-3.148,0.296-4.5,0.824
		c-1.352,0.523-2.625,1.426-3.602,2.551c-1.046,1.125-1.796,2.546-2.398,4.199c-0.523,1.648-0.824,3.597-0.824,5.773
		c0,2.176,0.301,4.051,0.824,5.699C135.375,37.801,136.125,39.227,137.176,40.352L137.176,40.352z M139.801,30.449
		c0-1.801,0.148-3.375,0.449-4.648c0.301-1.278,0.75-2.324,1.199-3.153c0.528-0.75,1.125-1.347,1.727-1.722
		c0.676-0.375,1.348-0.528,2.098-0.528s1.5,0.153,2.176,0.528s1.277,0.898,1.801,1.722c0.523,0.829,0.898,1.875,1.199,3.153
		c0.301,1.273,0.449,2.847,0.449,4.648c0,1.875-0.148,3.449-0.449,4.727c-0.301,1.273-0.676,2.324-1.199,3.148
		c-0.449,0.75-1.051,1.352-1.727,1.652c-1.348,0.672-3.074,0.672-4.421,0c-0.676-0.301-1.278-0.902-1.727-1.652
		c-0.523-0.824-0.898-1.875-1.199-3.148C139.949,33.898,139.801,32.324,139.801,30.449L139.801,30.449z M139.801,30.449"/>
	<path fill="#3164AD" d="M163.125,43.125h5.625V23.023c0.602-0.523,1.352-1.046,2.25-1.5c1.5-0.75,2.773-0.824,3.898-0.523
		c0.375,0.074,0.75,0.301,0.977,0.602c0.301,0.296,0.523,0.75,0.676,1.347c0.148,0.602,0.301,1.426,0.301,2.403v17.847h5.625V23.102
		c0.672-0.602,1.5-1.125,2.25-1.579c1.273-0.671,2.699-0.824,3.824-0.523c0.375,0.074,0.75,0.301,1.051,0.602
		c0.297,0.296,0.523,0.75,0.75,1.347c0.148,0.602,0.297,1.426,0.297,2.403v14.171c0,1.051,0.301,1.953,0.828,2.625
		c0.598,0.676,1.422,1.051,2.547,1.051h2.25V24.523c0-2.472-0.598-4.347-1.797-5.546c-1.203-1.204-3.078-1.801-5.625-1.801
		c-1.652,0-3.152,0.301-4.5,0.898c-1.125,0.528-2.25,1.125-3.301,1.801c-0.527-0.898-1.277-1.5-2.324-1.949
		c-1.203-0.528-2.551-0.75-4.203-0.75c-1.273,0-2.625,0.222-3.898,0.75c-1.051,0.449-2.102,0.972-3,1.574
		c-0.148-0.449-0.375-0.824-0.75-1.125c-0.449-0.449-1.125-0.676-1.949-0.676h-4.801v2.852h2.852v22.574H163.125z M163.125,43.125"
		/>
	<path fill="#3164AD" d="M204,42.148c1.051,0.527,2.324,0.902,3.602,1.203c1.348,0.297,2.625,0.375,3.898,0.375
		c3.301,0,5.926-0.676,7.801-2.027c1.949-1.348,2.926-3.223,2.926-5.473c0-1.203-0.227-2.25-0.75-3.152
		c-0.527-0.824-1.125-1.574-1.953-2.176c-0.75-0.597-1.723-1.125-2.699-1.5c-0.973-0.449-2.023-0.824-3-1.199
		c-0.824-0.301-1.5-0.597-2.25-0.898c-0.676-0.301-1.273-0.602-1.801-0.903c-0.449-0.296-0.898-0.671-1.199-1.125
		c-0.301-0.375-0.375-0.824-0.375-1.273c0-0.602,0.152-1.051,0.375-1.426c0.227-0.375,0.527-0.75,0.977-1.051
		c0.375-0.296,0.824-0.449,1.348-0.597c0.527-0.153,1.051-0.227,1.578-0.227c1.125,0,2.023,0.074,2.625,0.227
		c0.598,0.148,1.199,0.375,1.875,0.676v4.125h3.973v-4.352c0-0.75-0.074-1.352-0.301-1.801c-0.223-0.449-0.598-0.824-1.273-1.125
		c-1.125-0.449-2.324-0.824-3.523-1.051c-1.203-0.222-2.477-0.296-3.828-0.296c-0.672,0-1.574,0.074-2.625,0.222
		c-1.047,0.153-2.098,0.449-3.074,0.977c-1.051,0.449-1.875,1.199-2.625,2.097c-0.75,0.903-1.125,2.176-1.125,3.676
		c0,1.199,0.227,2.176,0.676,3c0.449,0.824,1.051,1.5,1.801,2.102c0.75,0.597,1.574,1.125,2.551,1.574
		c0.973,0.449,2.023,0.898,3.148,1.273c0.824,0.301,1.648,0.676,2.398,0.977s1.352,0.602,1.875,0.977
		c0.453,0.296,0.828,0.671,1.125,1.125c0.227,0.375,0.375,0.898,0.375,1.422c0,0.75-0.148,1.352-0.449,1.801
		s-0.75,0.824-1.199,1.125c-0.523,0.301-1.051,0.449-1.648,0.602c-1.727,0.301-3.301,0.148-4.578-0.152
		c-0.75-0.148-1.574-0.449-2.324-0.898v-4.273h-3.973v4.796c0,0.902,0.223,1.578,0.672,1.953C203.398,41.773,203.699,42,204,42.148
		L204,42.148z M204,42.148"/>
	<path fill="#3164AD" d="M241.875,43.125h5.625V23.324c0.301-0.301,0.602-0.597,0.977-0.898c0.449-0.301,0.898-0.602,1.348-0.824
		c0.449-0.227,0.902-0.454,1.426-0.602c0.898-0.301,1.574-0.301,2.25-0.074c0.301,0.074,0.523,0.222,0.75,0.449
		s0.375,0.676,0.523,1.125c0.152,0.523,0.227,1.199,0.227,1.949v2.324h5.25v-3.375c0-1.199-0.148-2.171-0.449-3
		c-0.301-0.824-0.75-1.5-1.352-1.949c-0.598-0.449-1.273-0.824-2.098-0.972c-1.801-0.454-4.125-0.454-6.527,0.523
		c-1.199,0.449-2.25,1.051-3.301,1.801c-0.375-1.352-1.273-2.028-2.699-2.028h-4.801v2.852h2.852V43.125z M241.875,43.125"/>
	<path fill="#3164AD" d="M265.051,35.699c0,1.5,0.148,2.777,0.523,3.75c0.375,1.051,0.902,1.875,1.574,2.551
		c0.676,0.676,1.5,1.125,2.477,1.352c0.898,0.223,1.949,0.375,3.148,0.375c1.426,0,2.926-0.375,4.426-1.051
		c1.277-0.602,2.477-1.352,3.375-2.25c0.152,0.676,0.375,1.199,0.75,1.723c0.527,0.676,1.277,0.977,2.402,0.977h2.25V17.699h-5.625
		v18.676c-0.301,0.375-0.602,0.676-1.051,1.051s-0.902,0.75-1.426,1.051c-0.523,0.297-1.125,0.523-1.648,0.672
		c-0.602,0.152-1.125,0.227-1.652,0.227c-1.051,0-2.023-0.301-2.699-0.824c-0.676-0.527-1.051-1.652-1.051-3.301V21.301
		c0-1.051-0.301-1.949-0.824-2.625c-0.602-0.676-1.426-1.051-2.551-1.051h-5.176v2.852h2.852v15.222H265.051z M265.051,35.699"/>
	<rect x="74.023" y="49.199" fill="#FFFFFF" width="213.828" height="1.051"/>
	<path fill="#FFFFFF" d="M8.25,65.102c-0.074,1.125-0.523,2.023-1.199,2.625c-0.676,0.598-1.653,0.973-2.778,0.973
		c-1.273,0-2.324-0.449-3.074-1.273S0,65.477,0,64.051c0-1.352,0.375-2.402,1.199-3.301c0.824-0.898,1.875-1.352,3.153-1.352
		c1.046,0,1.949,0.301,2.625,0.902c0.75,0.598,1.125,1.348,1.199,2.25H6.301C6.227,62.023,6,61.648,5.625,61.426
		c-0.375-0.301-0.75-0.375-1.273-0.375c-0.528,0-0.977,0.148-1.352,0.449s-0.602,0.676-0.75,1.125s-0.227,0.898-0.227,1.426
		c0,0.898,0.227,1.648,0.602,2.176C3,66.75,3.602,67.051,4.352,67.051c1.199,0,1.875-0.676,2.023-2.027H8.25V65.102z M8.25,65.102"
		/>
	<path fill="#FFFFFF" d="M16.199,59.625v1.574h-4.722v1.949h4.347v1.5h-4.347v2.176h4.796v1.652h-6.75v-8.852H16.199z
		 M16.199,59.625"/>
	<path fill="#FFFFFF" d="M17.625,59.625h3.824c0.977,0,1.801,0.227,2.403,0.75c0.597,0.449,0.898,1.199,0.898,2.102
		c0,0.898-0.301,1.648-0.898,2.098c-0.602,0.449-1.352,0.75-2.25,0.75h-2.028v3.152h-1.949V59.625z M19.574,61.273v2.551h1.727
		c0.972,0,1.5-0.449,1.5-1.273s-0.528-1.277-1.5-1.277H19.574z M19.574,61.273"/>
	<path fill="#FFFFFF" d="M25.875,59.625h4.199c0.824,0,1.5,0.148,2.028,0.523c0.523,0.375,0.824,0.902,0.824,1.652
		c0,0.449-0.074,0.75-0.301,1.125s-0.523,0.598-0.898,0.75c1.046,0.301,1.648,1.051,1.648,2.176c0,0.824-0.301,1.5-0.824,1.949
		c-0.602,0.449-1.278,0.676-2.176,0.676h-4.5V59.625z M27.75,61.125v2.102h1.801c0.972,0,1.5-0.375,1.5-1.051
		c0-0.375-0.153-0.676-0.375-0.824c-0.301-0.152-0.602-0.227-1.051-0.227H27.75z M27.75,64.574v2.402h1.949
		c0.528,0,0.903-0.078,1.199-0.227c0.301-0.148,0.454-0.449,0.454-0.977c0-0.449-0.153-0.824-0.454-0.973
		c-0.296-0.152-0.75-0.227-1.273-0.227H27.75z M27.75,64.574"/>
	<path fill="#FFFFFF" d="M42.148,59.625v8.852h-1.949v-6.152l-3.301,6.152h-2.171v-8.852h1.949v6.148l3.301-6.148H42.148z
		 M42.148,59.625"/>
	<path fill="#FFFFFF" d="M51.824,65.102c-0.074,1.125-0.523,2.023-1.199,2.625c-0.676,0.598-1.648,0.973-2.773,0.973
		c-1.278,0-2.329-0.449-3.079-1.273s-1.199-1.949-1.199-3.375c0-1.352,0.375-2.402,1.199-3.301c0.829-0.898,1.875-1.352,3.153-1.352
		c1.051,0,1.949,0.301,2.625,0.902c0.75,0.598,1.125,1.348,1.199,2.25h-1.875c-0.074-0.527-0.301-0.902-0.676-1.125
		c-0.375-0.301-0.75-0.375-1.273-0.375c-0.528,0-0.977,0.148-1.352,0.449s-0.597,0.676-0.75,1.125
		c-0.148,0.449-0.222,0.898-0.222,1.426c0,0.898,0.222,1.648,0.597,2.176c0.375,0.523,0.977,0.824,1.727,0.824
		c1.199,0,1.875-0.676,2.023-2.027h1.875V65.102z M51.824,65.102"/>
	<path fill="#FFFFFF" d="M58.5,62.852h2.324c0.977,0,1.727,0.223,2.25,0.75c0.602,0.449,0.903,1.199,0.903,2.098
		c0,0.977-0.301,1.652-0.903,2.102c-0.597,0.449-1.347,0.75-2.398,0.75h-4.051v-8.852h6.602v1.574h-4.653v1.578H58.5z
		 M62.102,65.625c0-0.824-0.528-1.273-1.5-1.273h-2.028v2.547h2.102C61.574,66.898,62.102,66.523,62.102,65.625L62.102,65.625z
		 M62.102,65.625"/>
	<path fill="#FFFFFF" d="M65.324,59.625h3.824c0.977,0,1.801,0.227,2.403,0.75c0.597,0.449,0.898,1.199,0.898,2.102
		c0,0.898-0.301,1.648-0.898,2.098c-0.602,0.449-1.352,0.75-2.25,0.75h-2.028v3.152h-1.949V59.625z M67.273,61.273v2.551H69
		c0.977,0,1.5-0.449,1.5-1.273s-0.523-1.277-1.5-1.277H67.273z M67.273,61.273"/>
	<path fill="#FFFFFF" d="M77.625,59.398c1.273,0,2.324,0.453,3.148,1.277c0.829,0.824,1.204,1.949,1.204,3.375
		c0,1.348-0.375,2.473-1.204,3.375c-0.824,0.824-1.875,1.273-3.148,1.273s-2.398-0.449-3.148-1.273
		c-0.829-0.824-1.204-1.949-1.204-3.375s0.375-2.551,1.204-3.375C75.227,59.852,76.352,59.398,77.625,59.398L77.625,59.398z
		 M77.625,61.051c-0.75,0-1.352,0.301-1.727,0.824c-0.449,0.523-0.671,1.273-0.671,2.176c0,0.973,0.222,1.723,0.671,2.25
		c0.454,0.523,1.051,0.824,1.801,0.824s1.352-0.301,1.727-0.824c0.449-0.527,0.597-1.277,0.597-2.25
		c0-0.902-0.222-1.652-0.671-2.176C78.977,61.273,78.375,61.051,77.625,61.051L77.625,61.051z M77.625,61.051"/>
	<path fill="#FFFFFF" d="M90.824,59.625v8.852h-1.949v-3.828h-3.602v3.828h-1.949v-8.852h1.949v3.301h3.602v-3.301H90.824z
		 M90.824,59.625"/>
	<path fill="#FFFFFF" d="M100.051,59.625v8.852h-1.949v-6.152l-3.301,6.152h-2.176v-8.852h1.949v6.148l3.301-6.148H100.051z
		 M100.051,59.625"/>
	<path fill="#FFFFFF" d="M101.773,59.625h3.829c0.972,0,1.796,0.227,2.398,0.75c0.602,0.449,0.898,1.199,0.898,2.102
		c0,0.898-0.296,1.648-0.898,2.098s-1.352,0.75-2.25,0.75h-2.023v3.152h-1.954V59.625z M103.727,61.273v2.551h1.722
		c0.977,0,1.5-0.449,1.5-1.273s-0.523-1.277-1.5-1.277H103.727z M103.727,61.273"/>
	<path fill="#FFFFFF" d="M114.074,59.398c1.278,0,2.324,0.453,3.153,1.277c0.824,0.824,1.199,1.949,1.199,3.375
		c0,1.348-0.375,2.473-1.199,3.375c-0.829,0.824-1.875,1.273-3.153,1.273c-1.273,0-2.398-0.449-3.148-1.273
		c-0.824-0.824-1.199-1.949-1.199-3.375s0.375-2.551,1.199-3.375C111.676,59.852,112.801,59.398,114.074,59.398L114.074,59.398z
		 M114.074,61.051c-0.75,0-1.347,0.301-1.722,0.824c-0.454,0.523-0.676,1.273-0.676,2.176c0,0.973,0.222,1.723,0.676,2.25
		c0.449,0.523,1.046,0.824,1.796,0.824s1.352-0.301,1.727-0.824c0.449-0.527,0.602-1.277,0.602-2.25
		c0-0.902-0.227-1.652-0.676-2.176C115.426,61.273,114.824,61.051,114.074,61.051L114.074,61.051z M114.074,61.051"/>
	<path fill="#FFFFFF" d="M119.773,59.625h4.204c0.824,0,1.5,0.148,2.023,0.523s0.824,0.902,0.824,1.652
		c0,0.449-0.074,0.75-0.301,1.125c-0.222,0.375-0.523,0.598-0.898,0.75c1.051,0.301,1.648,1.051,1.648,2.176
		c0,0.824-0.296,1.5-0.824,1.949c-0.597,0.449-1.273,0.676-2.176,0.676h-4.421v-8.852H119.773z M121.648,61.125v2.102h1.801
		c0.977,0,1.5-0.375,1.5-1.051c0-0.375-0.148-0.676-0.375-0.824c-0.301-0.152-0.597-0.227-1.051-0.227H121.648z M121.648,64.574
		v2.402h1.954c0.523,0,0.898-0.078,1.199-0.227c0.301-0.148,0.449-0.449,0.449-0.977c0-0.449-0.148-0.824-0.449-0.973
		c-0.301-0.152-0.75-0.227-1.278-0.227H121.648z M121.648,64.574"/>
	<path fill="#FFFFFF" d="M132.977,59.625l3.375,8.852h-2.028l-0.676-1.953h-3.296l-0.75,1.953h-2.028l3.375-8.852H132.977z
		 M133.125,65.102l-1.199-3.301l-1.199,3.301H133.125z M133.125,65.102"/>
	<path fill="#FFFFFF" d="M144.602,59.625v8.852h-1.954v-3.828h-3.597v3.828h-1.949v-8.852h1.949v3.301h3.597v-3.301H144.602z
		 M144.602,59.625"/>
	<path fill="#FFFFFF" d="M153.824,59.625v8.852h-1.949v-6.152l-3.301,6.152h-2.176v-8.852h1.953v6.148l3.297-6.148H153.824z
		 M153.824,59.625"/>
	<path fill="#FFFFFF" d="M159.75,65.023l-2.625,3.453h-2.477l2.777-3.602c-0.602-0.148-1.125-0.449-1.5-0.898
		c-0.375-0.453-0.527-0.977-0.527-1.652c0-0.898,0.301-1.574,0.902-2.023c0.598-0.449,1.273-0.676,2.176-0.676h4.348v8.852h-1.949
		v-3.453H159.75z M160.875,63.602v-2.477h-1.949c-0.527,0-0.902,0.074-1.199,0.227c-0.301,0.148-0.453,0.449-0.453,0.973
		c0,0.527,0.152,0.824,0.453,0.977c0.297,0.148,0.75,0.223,1.273,0.223h1.875V63.602z M160.875,63.602"/>
	<path fill="#FFFFFF" d="M174.227,65.102c-1.051,0-1.801-0.227-2.402-0.75c-0.523-0.453-0.824-1.277-0.824-2.402v-2.324h1.949v2.398
		c0,0.527,0.074,0.902,0.301,1.125c0.227,0.227,0.602,0.301,1.051,0.301c0.375,0,0.973-0.074,1.723-0.223v-3.602h1.953v8.852h-1.953
		v-3.676C175.352,65.023,174.676,65.102,174.227,65.102L174.227,65.102z M174.227,65.102"/>
	<path fill="#FFFFFF" d="M184.125,59.625l3.375,8.852h-2.023l-0.676-1.953H181.5l-0.75,1.953h-2.023l3.375-8.852H184.125z
		 M184.273,65.102l-1.199-3.301l-1.199,3.301H184.273z M184.273,65.102"/>
	<path fill="#FFFFFF" d="M196.199,65.102c-0.074,1.125-0.523,2.023-1.199,2.625c-0.676,0.598-1.648,0.973-2.773,0.973
		c-1.277,0-2.328-0.449-3.078-1.273s-1.199-1.949-1.199-3.375c0-1.352,0.375-2.402,1.199-3.301c0.828-0.898,1.875-1.352,3.152-1.352
		c1.051,0,1.949,0.301,2.625,0.902c0.75,0.598,1.125,1.348,1.199,2.25h-1.875c-0.074-0.527-0.301-0.902-0.676-1.125
		c-0.375-0.301-0.75-0.375-1.273-0.375c-0.527,0-0.977,0.148-1.352,0.449s-0.598,0.676-0.75,1.125
		c-0.148,0.449-0.223,0.898-0.223,1.426c0,0.898,0.223,1.648,0.598,2.176c0.375,0.523,0.977,0.824,1.727,0.824
		c1.199,0,1.875-0.676,2.023-2.027h1.875V65.102z M196.199,65.102"/>
	<path fill="#FFFFFF" d="M211.875,59.625v8.852h-1.949v-3.828h-3.602v3.828h-1.949v-8.852h1.949v3.301h3.602v-3.301H211.875z
		 M211.875,59.625"/>
	<path fill="#FFFFFF" d="M217.648,59.398c1.277,0,2.328,0.453,3.152,1.277S222,62.625,222,64.051c0,1.348-0.375,2.473-1.199,3.375
		c-0.824,0.824-1.875,1.273-3.152,1.273c-1.273,0-2.398-0.449-3.148-1.273c-0.824-0.824-1.199-1.949-1.199-3.375
		s0.375-2.551,1.199-3.375C215.25,59.852,216.301,59.398,217.648,59.398L217.648,59.398z M217.574,61.051
		c-0.75,0-1.348,0.301-1.723,0.824c-0.453,0.523-0.676,1.273-0.676,2.176c0,0.973,0.223,1.723,0.676,2.25
		c0.449,0.523,1.047,0.824,1.797,0.824s1.352-0.301,1.727-0.824c0.449-0.527,0.602-1.277,0.602-2.25
		c0-0.902-0.227-1.652-0.676-2.176C218.926,61.273,218.324,61.051,217.574,61.051L217.574,61.051z M217.574,61.051"/>
	<path fill="#FFFFFF" d="M226.125,65.102c-1.051,0-1.801-0.227-2.398-0.75c-0.527-0.453-0.828-1.277-0.828-2.402v-2.324h1.953v2.398
		c0,0.527,0.074,0.902,0.297,1.125c0.227,0.227,0.602,0.301,1.051,0.301c0.375,0,0.977-0.074,1.727-0.223v-3.602h1.949v8.852h-1.949
		v-3.676C227.176,65.023,226.574,65.102,226.125,65.102L226.125,65.102z M226.125,65.102"/>
	<path fill="#FFFFFF" d="M238.727,65.625c0,0.977-0.301,1.648-0.902,2.102c-0.598,0.449-1.348,0.75-2.398,0.75h-3.902v-8.852h1.953
		v3.148h2.098c0.977,0,1.727,0.227,2.25,0.75C238.5,64.051,238.727,64.727,238.727,65.625L238.727,65.625z M236.852,65.625
		c0-0.824-0.527-1.273-1.5-1.273h-1.801v2.547h1.875C236.324,66.898,236.852,66.523,236.852,65.625L236.852,65.625z M236.852,65.625
		"/>
	<path fill="#FFFFFF" d="M254.773,65.102c-0.074,1.125-0.523,2.023-1.199,2.625c-0.676,0.598-1.648,0.973-2.773,0.973
		c-1.277,0-2.324-0.449-3.074-1.273s-1.203-1.949-1.203-3.375c0-1.352,0.375-2.402,1.203-3.301c0.824-0.898,1.875-1.352,3.148-1.352
		c1.051,0,1.949,0.301,2.625,0.902c0.75,0.598,1.125,1.348,1.199,2.25h-1.875c-0.074-0.527-0.301-0.902-0.676-1.125
		c-0.375-0.301-0.75-0.375-1.273-0.375s-0.977,0.148-1.352,0.449s-0.598,0.676-0.75,1.125c-0.148,0.449-0.223,0.898-0.223,1.426
		c0,0.898,0.223,1.648,0.598,2.176c0.375,0.523,0.977,0.824,1.727,0.824c1.199,0,1.875-0.676,2.023-2.027h1.875V65.102z
		 M254.773,65.102"/>
	<path fill="#FFFFFF" d="M256.5,68.477v-1.652c0.301,0.152,0.602,0.227,0.898,0.227c0.301,0,0.527-0.074,0.676-0.227
		c0.152-0.148,0.227-0.301,0.227-0.523c0-0.074,0-0.152,0-0.227s-0.074-0.148-0.074-0.223c0-0.078-0.078-0.152-0.078-0.227
		s-0.074-0.148-0.148-0.227c-0.074-0.074-0.074-0.148-0.074-0.223l-2.625-5.477h2.176l2.023,4.652l1.949-4.652h2.102l-3,6.527
		c-0.449,0.898-0.824,1.574-1.277,1.949c-0.449,0.375-0.973,0.523-1.648,0.523C257.176,68.699,256.801,68.625,256.5,68.477
		L256.5,68.477z M256.5,68.477"/>
	<path fill="#FFFFFF" d="M270.977,59.625v1.648h-2.703v7.203h-1.949v-7.203h-2.699v-1.648H270.977z M270.977,59.625"/>
	<path fill="#FFFFFF" d="M279.824,59.625l-3.449,3.523l3.824,5.402h-2.473l-2.703-3.977l-1.125,1.125v2.852h-1.949v-8.852h1.949
		v3.676l3.453-3.676h2.473V59.625z M279.824,59.625"/>
	<path fill="#FFFFFF" d="M288.449,59.625v8.852H286.5v-6.152l-3.301,6.152h-2.176v-8.852h1.953v6.148l3.297-6.148H288.449z
		 M288.449,59.625"/>
</g>
</svg>