<svg width="16" height="16" viewBox="0 0 16 16" fill="none" xmlns="http://www.w3.org/2000/svg"><circle cx="8" cy="8" r="8" fill="white"></circle><path d="M8.66309 3.04688L8.57422 10.1904H7.43262L7.33691 3.04688H8.66309ZM7.2959 12.3643C7.2959 12.1592 7.35742 11.986 7.48047 11.8447C7.60807 11.7035 7.79492 11.6328 8.04102 11.6328C8.28255 11.6328 8.46712 11.7035 8.59473 11.8447C8.72689 11.986 8.79297 12.1592 8.79297 12.3643C8.79297 12.5602 8.72689 12.7288 8.59473 12.8701C8.46712 13.0114 8.28255 13.082 8.04102 13.082C7.79492 13.082 7.60807 13.0114 7.48047 12.8701C7.35742 12.7288 7.2959 12.5602 7.2959 12.3643Z" fill="#515561"></path></svg>