<?xml version="1.0" encoding="utf-8"?>
<!-- Generator: Adobe Illustrator 19.1.0, SVG Export Plug-In . SVG Version: 6.00 Build 0)  -->
<svg version="1.1" id="Слой_1" xmlns="http://www.w3.org/2000/svg" xmlns:xlink="http://www.w3.org/1999/xlink" x="0px" y="0px"
	 viewBox="0 0 20 20" style="enable-background:new 0 0 20 20;" xml:space="preserve">
<style type="text/css">
	.st0{fill:#FFE82A;}
</style>
<g>
	<path class="st0" d="M10,1.7c-5.5,0-10,4.9-10,11c0,3.3,1.3,5.4,1.3,5.4l17.4,0c0,0,1.3-2.3,1.3-5.4C20,6.6,15.5,1.7,10,1.7L10,1.7
		z M18,16.8l-15.9,0c0,0-0.8-1.7-0.8-4.1C1.2,7.3,5.2,3,10,3c4.9,0,8.8,4.3,8.8,9.6C18.8,15,18,16.8,18,16.8L18,16.8z M18,16.8"/>
	<path class="st0" d="M12.8,4.6h-0.1L10,10.3L7.3,4.6L3.5,14.9h-1v0.8h5.4v-0.8H6.8l1.1-3.2l2.2,4.1l2.1-4.1l1.1,3.2h-1.1v0.8h5.3
		v-0.8h-0.9L12.8,4.6z M12.8,4.6"/>
</g>
</svg>
