<svg xmlns="http://www.w3.org/2000/svg"
        xmlns:xlink="http://www.w3.org/1999/xlink"
        width="18px" height="10px">
    <path fill-rule="evenodd"  fill="rgb(255, 134, 5)"
          d="M17.712,9.161 L17.122,9.720 C16.937,9.894 16.690,9.990 16.426,9.990 C16.162,9.990 15.915,9.894 15.730,9.720 L9.004,3.393 L2.270,9.726 C2.085,9.901 1.838,9.997 1.574,9.997 C1.310,9.997 1.063,9.901 0.877,9.726 L0.288,9.172 C-0.096,8.811 -0.096,8.223 0.288,7.862 L8.305,0.294 C8.490,0.120 8.737,-0.003 9.003,-0.003 L9.006,-0.003 C9.270,-0.003 9.517,0.120 9.702,0.294 L17.712,7.842 C17.897,8.017 17.999,8.255 18.000,8.503 C18.000,8.751 17.897,8.987 17.712,9.161 Z"/>
</svg>
