<?xml version="1.0" encoding="utf-8"?>
<!-- Generator: Adobe Illustrator 19.1.0, SVG Export Plug-In . SVG Version: 6.00 Build 0)  -->
<svg version="1.1" id="Слой_1" xmlns="http://www.w3.org/2000/svg" xmlns:xlink="http://www.w3.org/1999/xlink" x="0px" y="0px"
	 viewBox="0 0 234 60" style="enable-background:new 0 0 234 60;" xml:space="preserve">
<style type="text/css">
	.st0{fill:#3064AC;}
	.st1{fill:#FFFFFF;}
</style>
<g>
	<rect x="0.5" y="0.1" class="st0" width="52.3" height="40.8"/>
	<g>
		<path class="st1" d="M10.7,34.6c1.6,0.8,3.5,1.1,5.6,1.1c1.7,0,3.4-0.2,5-0.5c1.5-0.3,3.2-0.8,4.8-1.5l0.2-0.1v-9.7
			c0-1.2-0.3-2.1-0.9-2.5v0c-0.6-0.4-1.4-0.6-2.3-0.6h-6v2.7h4.6v8.6c-0.7,0.2-1.5,0.4-2.2,0.4c-0.9,0.1-1.6,0.1-2.3,0.1
			c-1.3,0-2.4-0.2-3.4-0.7c-1-0.5-1.9-1.2-2.6-2.1c-0.7-1-1.3-2.2-1.6-3.7c-0.4-1.5-0.6-3.4-0.6-5.5c0-1.9,0.2-3.7,0.6-5.2
			c0.4-1.5,0.9-2.8,1.6-3.8c0.7-1,1.5-1.8,2.5-2.4c1-0.5,2.1-0.8,3.3-0.8c0.5,0,0.9,0,1.3,0.1c0.4,0,0.7,0.1,1.1,0.2
			c0.3,0.1,0.7,0.2,1,0.3c0.3,0.1,0.6,0.2,1,0.4v4.4h3.7V9c0-0.5-0.1-1-0.3-1.3c-0.2-0.4-0.5-0.7-1.1-0.9c-1.2-0.5-2.3-0.9-3.5-1.1
			c-1.1-0.2-2.3-0.3-3.6-0.3c-1.8,0-3.6,0.3-5.1,0.9C10,7,8.6,7.9,7.5,9.2c-1.1,1.3-2,2.9-2.6,4.8C4.3,15.9,4,18.1,4,20.6
			c0,2.2,0.2,4.2,0.7,6c0.5,1.8,1.2,3.4,2.2,4.8C7.9,32.8,9.2,33.9,10.7,34.6z"/>
		<path class="st1" d="M33.6,32.8c0.8,0.9,1.8,1.6,2.9,2.1c1.1,0.5,2.4,0.7,3.8,0.7c1.4,0,2.6-0.2,3.8-0.7c1.1-0.5,2.1-1.2,2.9-2.1
			c0.8-0.9,1.4-2.1,1.9-3.4c0.4-1.3,0.7-2.9,0.7-4.6c0-1.8-0.2-3.4-0.7-4.7c-0.4-1.3-1.1-2.5-1.9-3.4v0c-0.8-0.9-1.8-1.6-2.9-2
			c-1.1-0.5-2.4-0.7-3.7-0.7c-1.3,0-2.6,0.2-3.7,0.7c-1.1,0.5-2.1,1.1-2.9,2c-0.8,0.9-1.5,2-1.9,3.4c-0.4,1.3-0.7,2.9-0.7,4.7
			c0,1.7,0.2,3.3,0.7,4.6C32.2,30.8,32.8,31.9,33.6,32.8z M35.8,24.8c0-1.5,0.1-2.7,0.4-3.8c0.2-1,0.6-1.9,1-2.5
			c0.4-0.6,0.9-1.1,1.4-1.4c0.5-0.3,1.1-0.4,1.7-0.4c0.6,0,1.2,0.1,1.8,0.4c0.5,0.3,1,0.8,1.4,1.4c0.4,0.7,0.7,1.5,1,2.5
			c0.2,1,0.4,2.3,0.4,3.8c0,1.5-0.1,2.8-0.4,3.8c-0.2,1-0.6,1.9-1,2.5c-0.4,0.6-0.9,1.1-1.4,1.4c-1.1,0.6-2.5,0.6-3.6,0
			c-0.5-0.3-1-0.7-1.4-1.4c-0.4-0.7-0.7-1.5-1-2.5C35.9,27.6,35.8,26.3,35.8,24.8z"/>
	</g>
	<path class="st1" d="M187.3,35.6c0.9,0,1.6-0.3,2.3-1c0.6-0.6,0.9-1.4,0.9-2.4c0-0.9-0.3-1.7-0.9-2.4c-0.6-0.6-1.4-1-2.3-1
		c-0.9,0-1.6,0.3-2.3,1c-0.6,0.6-0.9,1.4-0.9,2.4c0,0.9,0.3,1.7,0.9,2.4C185.7,35.3,186.5,35.6,187.3,35.6z"/>
	<g>
		<path class="st0" d="M62.6,35.1h4.8V22.5h2.7l6.4,10.6c0.4,0.7,0.9,1.2,1.5,1.5c0.6,0.3,1.5,0.5,2.7,0.5h3l-8.8-13
			c0.7-0.1,1.5-0.4,2.2-0.7c0.9-0.4,1.7-1,2.5-1.6c0.7-0.7,1.3-1.5,1.8-2.5c0.5-1,0.7-2.1,0.7-3.3c0-1.6-0.3-2.9-0.9-4
			S80,8.2,79.1,7.6c-0.9-0.6-2-1-3.3-1.2C74.6,6.1,73.4,6,72.1,6H59.9v2.5h2.7V35.1z M67.4,19.6V9h4.3c0.5,0,1.1,0.1,1.8,0.2
			c0.6,0.1,1.3,0.4,1.8,0.7c0.6,0.4,1,0.9,1.4,1.5c0.4,0.6,0.6,1.5,0.6,2.6c0,1-0.2,1.8-0.5,2.5c-0.4,0.7-0.8,1.3-1.4,1.7
			c-0.6,0.5-1.2,0.8-1.9,1c-0.7,0.2-1.4,0.3-2,0.3H67.4z"/>
		<path class="st0" d="M89.1,32.8c0.8,0.9,1.8,1.6,2.9,2.1c1.1,0.5,2.4,0.7,3.8,0.7c1.4,0,2.6-0.2,3.8-0.7c1.1-0.5,2.1-1.2,2.9-2.1
			c0.8-0.9,1.4-2.1,1.9-3.4c0.4-1.3,0.7-2.9,0.7-4.6c0-1.8-0.2-3.4-0.7-4.7c-0.4-1.3-1.1-2.5-1.9-3.4v0c-0.8-0.9-1.8-1.6-2.9-2
			c-1.1-0.5-2.4-0.7-3.7-0.7c-1.3,0-2.6,0.2-3.7,0.7c-1.1,0.5-2.1,1.1-2.9,2c-0.8,0.9-1.5,2-1.9,3.4c-0.4,1.3-0.7,2.9-0.7,4.7
			c0,1.7,0.2,3.3,0.7,4.6C87.7,30.8,88.3,31.9,89.1,32.8z M91.2,24.8c0-1.5,0.1-2.7,0.4-3.8c0.2-1,0.6-1.9,1-2.5
			c0.4-0.6,0.9-1.1,1.4-1.4c0.5-0.3,1.1-0.4,1.7-0.4c0.6,0,1.2,0.1,1.8,0.4c0.5,0.3,1,0.8,1.4,1.4c0.4,0.7,0.7,1.5,1,2.5
			c0.2,1,0.4,2.3,0.4,3.8c0,1.5-0.1,2.8-0.4,3.8c-0.2,1-0.6,1.9-1,2.5c-0.4,0.6-0.9,1.1-1.4,1.4c-1.1,0.6-2.5,0.6-3.6,0
			c-0.5-0.3-1-0.7-1.4-1.4c-0.4-0.7-0.7-1.5-1-2.5C91.4,27.6,91.2,26.3,91.2,24.8z"/>
		<path class="st0" d="M111.1,32.8c0.8,0.9,1.8,1.6,2.9,2.1c1.1,0.5,2.4,0.7,3.8,0.7c1.4,0,2.6-0.2,3.8-0.7c1.1-0.5,2.1-1.2,2.9-2.1
			c0.8-0.9,1.4-2.1,1.9-3.4c0.4-1.3,0.7-2.9,0.7-4.6c0-1.8-0.2-3.4-0.7-4.7c-0.4-1.3-1.1-2.5-1.9-3.4v0c-0.8-0.9-1.8-1.6-2.9-2
			c-1.1-0.5-2.4-0.7-3.7-0.7c-1.3,0-2.6,0.2-3.7,0.7c-1.1,0.5-2.1,1.1-2.9,2c-0.8,0.9-1.5,2-1.9,3.4c-0.4,1.3-0.7,2.9-0.7,4.7
			c0,1.7,0.2,3.3,0.7,4.6C109.7,30.8,110.3,31.9,111.1,32.8z M113.3,24.8c0-1.5,0.1-2.7,0.4-3.8c0.2-1,0.6-1.9,1-2.5
			c0.4-0.6,0.9-1.1,1.4-1.4c0.5-0.3,1.1-0.4,1.7-0.4c0.6,0,1.2,0.1,1.8,0.4c0.5,0.3,1,0.8,1.4,1.4c0.4,0.7,0.7,1.5,1,2.5
			c0.2,1,0.4,2.3,0.4,3.8c0,1.5-0.1,2.8-0.4,3.8c-0.2,1-0.6,1.9-1,2.5c-0.4,0.6-0.9,1.1-1.4,1.4c-1.1,0.6-2.5,0.6-3.6,0
			c-0.5-0.3-1-0.7-1.4-1.4c-0.4-0.7-0.7-1.5-1-2.5C113.4,27.6,113.3,26.3,113.3,24.8z"/>
		<path class="st0" d="M132.2,35.1h4.6V18.8c0.5-0.4,1.1-0.8,1.8-1.2c1.2-0.6,2.3-0.7,3.2-0.4c0.3,0.1,0.6,0.2,0.8,0.5
			c0.2,0.3,0.4,0.6,0.6,1.1c0.1,0.5,0.2,1.1,0.2,1.9v14.5h4.6V18.8c0.6-0.5,1.2-0.9,1.9-1.3c1.1-0.6,2.2-0.6,3.1-0.4
			c0.3,0.1,0.6,0.2,0.8,0.5c0.2,0.3,0.4,0.6,0.6,1.1c0.1,0.5,0.2,1.1,0.2,1.9v11.5c0,0.9,0.2,1.6,0.7,2.1c0.5,0.6,1.2,0.9,2.1,0.9
			h1.9V19.9c0-2-0.5-3.5-1.5-4.5c-1-1-2.5-1.4-4.6-1.4c-1.4,0-2.6,0.2-3.6,0.7c-0.9,0.4-1.8,0.9-2.7,1.5c-0.4-0.7-1.1-1.2-1.9-1.6
			c-0.9-0.4-2.1-0.6-3.4-0.6c-1.1,0-2.1,0.2-3.2,0.6c-0.9,0.3-1.7,0.8-2.4,1.3c-0.1-0.4-0.3-0.7-0.6-0.9c-0.4-0.4-0.9-0.5-1.6-0.5
			h-3.9v2.3h2.3V35.1z"/>
		<path class="st0" d="M165.4,34.3c0.9,0.4,1.9,0.7,3,1c1.1,0.2,2.2,0.3,3.2,0.3c2.7,0,4.8-0.6,6.3-1.7c1.6-1.1,2.4-2.6,2.4-4.4
			c0-1-0.2-1.8-0.6-2.5c-0.4-0.7-0.9-1.3-1.6-1.8h0c-0.6-0.5-1.4-0.9-2.2-1.2c-0.8-0.3-1.6-0.7-2.4-1c-0.6-0.2-1.2-0.5-1.8-0.7
			c-0.5-0.2-1-0.5-1.4-0.7c-0.4-0.3-0.7-0.6-0.9-0.9c-0.2-0.3-0.3-0.6-0.3-1.1c0-0.5,0.1-0.9,0.3-1.2c0.2-0.3,0.5-0.6,0.8-0.8
			c0.3-0.2,0.7-0.4,1.1-0.5c0.4-0.1,0.9-0.2,1.3-0.2c0.9,0,1.6,0.1,2.1,0.2c0.5,0.1,1,0.3,1.6,0.6v3.3h3.2v-3.5
			c0-0.6-0.1-1.1-0.3-1.4c-0.2-0.3-0.5-0.6-1-0.9c-0.9-0.4-1.9-0.7-2.9-0.9c-1-0.2-2-0.3-3.1-0.3c-0.6,0-1.3,0.1-2.1,0.2
			c-0.9,0.1-1.7,0.4-2.5,0.8c-0.8,0.4-1.5,1-2.1,1.7c-0.6,0.7-0.9,1.7-0.9,3c0,0.9,0.2,1.8,0.5,2.4c0.4,0.7,0.8,1.2,1.5,1.7
			c0.6,0.5,1.3,0.9,2.1,1.3c0.8,0.4,1.6,0.7,2.5,1c0.7,0.3,1.3,0.5,2,0.8c0.6,0.2,1.1,0.5,1.5,0.8c0.4,0.3,0.7,0.6,0.9,0.9
			c0.2,0.3,0.3,0.7,0.3,1.2c0,0.6-0.1,1.1-0.4,1.5c-0.3,0.4-0.6,0.7-1,0.9c-0.4,0.2-0.9,0.4-1.4,0.5c-1.4,0.3-2.7,0.1-3.7-0.1
			c-0.6-0.1-1.3-0.4-1.9-0.7v-3.5h-3.2v3.9c0,0.7,0.2,1.3,0.5,1.6C164.9,34,165.2,34.2,165.4,34.3z"/>
		<path class="st0" d="M196.2,35.1h4.6V19c0.2-0.2,0.5-0.5,0.8-0.7c0.3-0.3,0.7-0.5,1.1-0.7c0.4-0.2,0.8-0.4,1.1-0.5
			c0.7-0.2,1.3-0.2,1.8-0.1c0.2,0.1,0.4,0.2,0.6,0.4c0.2,0.2,0.3,0.5,0.4,0.9c0.1,0.4,0.2,0.9,0.2,1.6v1.9h4.3v-2.8
			c0-1-0.1-1.8-0.4-2.4c-0.2-0.7-0.6-1.2-1.1-1.6l0,0c-0.5-0.4-1-0.7-1.7-0.8c-1.5-0.4-3.3-0.3-5.3,0.4c-1,0.4-1.9,0.9-2.7,1.4
			c-0.3-1.1-1-1.6-2.2-1.6h-3.9v2.3h2.3V35.1z"/>
		<path class="st0" d="M215.1,29.1c0,1.2,0.1,2.2,0.4,3.1c0.3,0.8,0.7,1.5,1.3,2c0.5,0.5,1.2,0.9,2,1.1c0.7,0.2,1.6,0.3,2.6,0.3
			c1.1,0,2.4-0.3,3.6-0.8c1.1-0.5,2-1.1,2.7-1.8c0.1,0.5,0.3,1,0.6,1.4c0.4,0.5,1.1,0.8,1.9,0.8h1.9V14.5h-4.6v15.2
			c-0.2,0.3-0.5,0.6-0.8,0.9c-0.4,0.3-0.8,0.6-1.2,0.8c-0.4,0.2-0.9,0.4-1.4,0.6c-0.5,0.1-0.9,0.2-1.3,0.2c-0.9,0-1.6-0.2-2.2-0.7
			c-0.6-0.4-0.8-1.3-0.8-2.7V17.5c0-0.9-0.2-1.6-0.7-2.1c-0.5-0.6-1.2-0.9-2.1-0.9h-4.2v2.3h2.3V29.1z"/>
	</g>
	<g>
		<g>
			<path class="st1" d="M4.6,56.2H3v-9.7l-1.8,0.6L1,46.3l2-0.8c0.3-0.1,0.6-0.2,0.8-0.2c0.2,0,0.4,0.1,0.5,0.2s0.2,0.4,0.2,0.7
				V56.2z"/>
			<path class="st1" d="M14.3,56.2h-0.6c-0.3,0-0.5-0.1-0.7-0.3c-0.1-0.2-0.2-0.4-0.2-0.7v-2.1H12l-1.6,2.4
				c-0.2,0.2-0.3,0.4-0.5,0.5c-0.2,0.1-0.5,0.2-0.8,0.2H8l1.4-1.9c0.2-0.2,0.3-0.4,0.4-0.5c0.1-0.1,0.2-0.3,0.3-0.4
				c0.1-0.1,0.2-0.2,0.3-0.2c0.1-0.1,0.2-0.1,0.3-0.2V53c-0.4,0-0.8-0.1-1.1-0.3c-0.3-0.1-0.5-0.3-0.6-0.5c-0.2-0.2-0.3-0.4-0.3-0.6
				c-0.1-0.2-0.1-0.5-0.1-0.7c0-0.7,0.2-1.2,0.7-1.6s1.2-0.6,2.1-0.6h1.9c0.3,0,0.5,0.1,0.7,0.3c0.1,0.2,0.2,0.4,0.2,0.7V56.2z
				 M11.7,49.6c-0.5,0-0.8,0.1-1.1,0.3c-0.3,0.2-0.4,0.6-0.4,1.1c0,0.2,0,0.4,0.1,0.6c0.1,0.2,0.2,0.3,0.4,0.4
				c0.2,0.1,0.3,0.2,0.5,0.3c0.2,0.1,0.4,0.1,0.7,0.1h0.9v-2.8H11.7z"/>
			<path class="st1" d="M29.9,45.7c0,0.2-0.1,0.4-0.2,0.5c-0.1,0.1-0.3,0.1-0.5,0.2c-0.2,0-0.4,0.1-0.7,0.1c-0.3,0-0.6,0.1-1.1,0.2
				c-0.9,0.2-1.6,0.6-2.1,1.2c-0.4,0.7-0.7,1.6-0.7,2.7h0.1c0.2-0.6,0.5-1,1-1.4c0.4-0.4,1-0.5,1.6-0.5c0.4,0,0.8,0.1,1.2,0.2
				c0.4,0.2,0.7,0.4,1,0.7c0.3,0.3,0.5,0.7,0.6,1.2c0.2,0.5,0.2,1,0.2,1.7c0,0.7-0.1,1.3-0.3,1.8c-0.2,0.5-0.4,0.9-0.7,1.2
				c-0.3,0.3-0.7,0.6-1,0.7c-0.4,0.2-0.8,0.2-1.2,0.2c-0.5,0-1-0.1-1.4-0.3c-0.4-0.2-0.8-0.4-1.1-0.8s-0.5-0.9-0.7-1.4
				c-0.2-0.6-0.2-1.3-0.2-2.1v-0.4c0-0.8,0.1-1.5,0.2-2.2c0.1-0.7,0.3-1.2,0.5-1.8c0.2-0.5,0.6-0.9,1-1.3s0.9-0.6,1.4-0.8
				c0.2-0.1,0.4-0.1,0.6-0.2c0.2,0,0.4-0.1,0.7-0.1c0.2,0,0.5-0.1,0.8-0.1c0.3,0,0.6-0.1,1-0.2L29.9,45.7z M25.2,52.6
				c0,0.4,0,0.9,0.1,1.2c0.1,0.4,0.2,0.7,0.3,1c0.1,0.3,0.3,0.5,0.6,0.6c0.2,0.2,0.5,0.2,0.9,0.2c0.4,0,0.6-0.1,0.9-0.3
				c0.2-0.2,0.4-0.5,0.5-0.8s0.2-0.6,0.3-1c0-0.4,0.1-0.7,0.1-1c0-0.2,0-0.4-0.1-0.8c0-0.3-0.1-0.7-0.2-1c-0.1-0.3-0.3-0.6-0.5-0.9
				c-0.2-0.2-0.6-0.4-1-0.4c-0.3,0-0.6,0.1-0.8,0.2c-0.2,0.2-0.4,0.4-0.6,0.7c-0.2,0.3-0.3,0.6-0.3,1C25.3,51.8,25.2,52.2,25.2,52.6
				z"/>
			<path class="st1" d="M32.5,49.4h-0.9v-0.6h1.4c0.3,0,0.5,0.1,0.7,0.3c0.1,0.2,0.2,0.4,0.2,0.7v4.6h0.1l3.2-5.6h1.4v7.5h-0.6
				c-0.3,0-0.5-0.1-0.7-0.3c-0.1-0.2-0.2-0.4-0.2-0.7v-4.6h-0.1l-3.2,5.6h-1.4V49.4z"/>
			<path class="st1" d="M40.5,48.8h1.3c0.2,0,0.4,0.1,0.5,0.2c0.1,0.1,0.2,0.3,0.2,0.4c0.2-0.2,0.6-0.4,0.9-0.6
				c0.4-0.2,0.7-0.2,1.1-0.2c1,0,1.7,0.3,2.2,0.9c0.5,0.6,0.8,1.6,0.8,2.9c0,1.3-0.3,2.3-0.8,3c-0.5,0.7-1.3,1.1-2.3,1.1
				c-0.1,0-0.2,0-0.4,0c-0.1,0-0.3-0.1-0.4-0.1c-0.2,0-0.3-0.1-0.4-0.2c-0.1-0.1-0.3-0.1-0.4-0.2v3.7h-1.5V49.4h-0.9V48.8z
				 M44.4,49.5c-0.3,0-0.6,0.1-0.9,0.2c-0.3,0.2-0.5,0.3-0.7,0.5V55c0.1,0.1,0.2,0.2,0.4,0.3c0.1,0.1,0.3,0.1,0.4,0.2
				c0.1,0,0.3,0.1,0.4,0.1c0.1,0,0.2,0,0.3,0c0.2,0,0.5-0.1,0.7-0.2c0.2-0.1,0.4-0.3,0.6-0.5c0.2-0.2,0.3-0.6,0.4-1
				c0.1-0.4,0.1-0.9,0.1-1.6c0-1-0.2-1.8-0.5-2.2S44.9,49.5,44.4,49.5z"/>
			<path class="st1" d="M49,48.8h0.6c0.2,0,0.4,0,0.5,0c0.2,0,0.3,0.1,0.5,0.2s0.3,0.2,0.5,0.3c0.2,0.1,0.3,0.3,0.5,0.6l1.5,2h0.4
				v-3.2h1.5v3.2h0.4l1.5-2c0.2-0.2,0.3-0.4,0.5-0.6c0.2-0.1,0.3-0.3,0.5-0.3s0.3-0.1,0.5-0.2c0.2,0,0.3,0,0.5,0h0.6v1.1h-1.1
				C58,49.9,57.9,50,57.9,50c-0.1,0.1-0.2,0.1-0.3,0.3l-1.5,1.9c0.3,0.1,0.6,0.3,0.9,0.6c0.3,0.3,0.5,0.6,0.9,1l1.8,2.4h-1
				c-0.2,0-0.4,0-0.6-0.1c-0.2-0.1-0.4-0.2-0.6-0.5l-1.9-2.8h-0.6v3.5h-1.5v-3.5h-0.6l-1.9,2.8c-0.2,0.3-0.4,0.4-0.6,0.5
				c-0.2,0.1-0.4,0.1-0.6,0.1h-1l1.8-2.4c0.3-0.4,0.6-0.8,0.9-1s0.5-0.5,0.9-0.6l-1.5-1.9c-0.1-0.1-0.2-0.2-0.3-0.3
				c-0.1-0.1-0.2-0.1-0.2-0.2H49V48.8z"/>
			<path class="st1" d="M61.1,51v-1.2c0-0.3,0.2-0.6,0.5-0.7c0.5-0.2,0.9-0.3,1.3-0.4s0.7-0.1,1.1-0.1c0.5,0,1,0.1,1.4,0.2
				c0.4,0.1,0.6,0.3,0.9,0.5c0.2,0.2,0.4,0.5,0.5,0.8c0.1,0.3,0.1,0.7,0.1,1.1v5.1h-0.6c-0.6,0-0.9-0.3-0.9-0.9h0
				c-0.4,0.4-0.9,0.7-1.3,0.9c-0.4,0.1-0.8,0.2-1.1,0.2c-0.4,0-0.7-0.1-1-0.2s-0.5-0.3-0.7-0.4s-0.3-0.4-0.4-0.7
				c-0.1-0.3-0.1-0.5-0.1-0.8c0-0.3,0.1-0.6,0.2-0.9c0.1-0.3,0.3-0.6,0.6-0.8c0.3-0.2,0.6-0.4,1.1-0.6c0.5-0.1,1-0.2,1.7-0.2h1.1
				v-0.6c0-0.7-0.1-1.1-0.4-1.4c-0.3-0.3-0.7-0.4-1.2-0.4c-0.3,0-0.6,0-0.8,0.1s-0.5,0.1-0.8,0.3V51H61.1z M64.5,52.6
				c-0.5,0-0.9,0-1.2,0.1c-0.3,0.1-0.6,0.2-0.7,0.4s-0.3,0.3-0.4,0.5s-0.1,0.4-0.1,0.6c0,0.4,0.1,0.7,0.3,0.9
				c0.2,0.2,0.5,0.3,0.9,0.3c0.2,0,0.4,0,0.6-0.1c0.2-0.1,0.4-0.2,0.5-0.3c0.2-0.1,0.3-0.2,0.5-0.4c0.1-0.1,0.3-0.3,0.3-0.4v-1.7
				H64.5z"/>
			<path class="st1" d="M79.4,56.4c-0.5,0-1-0.1-1.4-0.3c-0.4-0.2-0.8-0.4-1-0.7c-0.3-0.3-0.5-0.7-0.7-1.2c-0.2-0.5-0.2-1-0.2-1.7
				c0-0.7,0.1-1.2,0.2-1.7s0.4-0.9,0.7-1.2c0.3-0.3,0.6-0.6,1.1-0.7c0.4-0.2,0.8-0.2,1.3-0.2s0.9,0.1,1.3,0.2
				c0.4,0.2,0.8,0.4,1.1,0.7c0.3,0.3,0.5,0.7,0.7,1.2c0.2,0.5,0.2,1.1,0.2,1.7c0,0.6-0.1,1.2-0.2,1.7c-0.2,0.5-0.4,0.9-0.7,1.2
				c-0.3,0.3-0.6,0.6-1,0.7C80.3,56.3,79.9,56.4,79.4,56.4z M79.4,55.7c0.3,0,0.5-0.1,0.7-0.2c0.2-0.1,0.4-0.3,0.6-0.6
				c0.2-0.3,0.3-0.6,0.4-1c0.1-0.4,0.1-0.9,0.1-1.5c0-0.6,0-1-0.1-1.4c-0.1-0.4-0.2-0.7-0.4-1c-0.2-0.3-0.4-0.4-0.6-0.6
				c-0.2-0.1-0.5-0.2-0.7-0.2s-0.5,0.1-0.7,0.2c-0.2,0.1-0.4,0.3-0.6,0.6c-0.2,0.3-0.3,0.6-0.4,1c-0.1,0.4-0.1,0.9-0.1,1.4
				c0,0.6,0,1.1,0.1,1.5c0.1,0.4,0.2,0.7,0.4,1c0.2,0.3,0.3,0.4,0.6,0.6C78.9,55.6,79.1,55.7,79.4,55.7z"/>
			<path class="st1" d="M90.5,45.7c0,0.2-0.1,0.4-0.2,0.5c-0.1,0.1-0.3,0.1-0.5,0.2c-0.2,0-0.4,0.1-0.7,0.1c-0.3,0-0.6,0.1-1.1,0.2
				c-0.9,0.2-1.6,0.6-2.1,1.2c-0.4,0.7-0.7,1.6-0.7,2.7h0.1c0.2-0.6,0.5-1,1-1.4c0.4-0.4,1-0.5,1.6-0.5c0.4,0,0.8,0.1,1.2,0.2
				c0.4,0.2,0.7,0.4,1,0.7c0.3,0.3,0.5,0.7,0.6,1.2c0.2,0.5,0.2,1,0.2,1.7c0,0.7-0.1,1.3-0.3,1.8c-0.2,0.5-0.4,0.9-0.7,1.2
				c-0.3,0.3-0.7,0.6-1,0.7c-0.4,0.2-0.8,0.2-1.2,0.2c-0.5,0-1-0.1-1.4-0.3c-0.4-0.2-0.8-0.4-1.1-0.8c-0.3-0.4-0.5-0.9-0.7-1.4
				c-0.2-0.6-0.2-1.3-0.2-2.1v-0.4c0-0.8,0.1-1.5,0.2-2.2s0.3-1.2,0.5-1.8c0.2-0.5,0.6-0.9,1-1.3c0.4-0.3,0.9-0.6,1.4-0.8
				c0.2-0.1,0.4-0.1,0.6-0.2c0.2,0,0.4-0.1,0.7-0.1c0.2,0,0.5-0.1,0.8-0.1c0.3,0,0.6-0.1,1-0.2L90.5,45.7z M85.9,52.6
				c0,0.4,0,0.9,0.1,1.2c0.1,0.4,0.2,0.7,0.3,1c0.1,0.3,0.3,0.5,0.6,0.6c0.2,0.2,0.5,0.2,0.9,0.2c0.4,0,0.6-0.1,0.9-0.3
				c0.2-0.2,0.4-0.5,0.5-0.8s0.2-0.6,0.3-1c0-0.4,0.1-0.7,0.1-1c0-0.2,0-0.4-0.1-0.8c0-0.3-0.1-0.7-0.2-1c-0.1-0.3-0.3-0.6-0.5-0.9
				c-0.2-0.2-0.6-0.4-1-0.4c-0.3,0-0.6,0.1-0.8,0.2c-0.2,0.2-0.4,0.4-0.6,0.7c-0.2,0.3-0.3,0.6-0.3,1C86,51.8,85.9,52.2,85.9,52.6z"
				/>
			<path class="st1" d="M94.1,56.2c-0.3,0-0.5-0.1-0.7-0.3c-0.1-0.2-0.2-0.4-0.2-0.7v-5.9h-0.9v-0.6h1.4c0.3,0,0.5,0.1,0.7,0.3
				c0.1,0.2,0.2,0.4,0.2,0.7v2h1.5c0.9,0,1.6,0.2,2,0.6c0.4,0.4,0.6,0.9,0.6,1.6c0,0.4-0.1,0.7-0.2,1c-0.1,0.3-0.3,0.5-0.5,0.7
				c-0.2,0.2-0.5,0.3-0.8,0.4s-0.6,0.1-1,0.1H94.1z M95.8,55.4c0.4,0,0.8-0.1,1-0.3c0.3-0.2,0.4-0.6,0.4-1.1c0-0.2,0-0.5-0.1-0.6
				c-0.1-0.2-0.2-0.3-0.3-0.4c-0.1-0.1-0.3-0.2-0.5-0.2c-0.2-0.1-0.4-0.1-0.5-0.1h-1.2v2.8H95.8z"/>
			<path class="st1" d="M103.7,55.5c0.2,0,0.4,0,0.5,0c0.2,0,0.3-0.1,0.5-0.1c0.1-0.1,0.3-0.1,0.5-0.2c0.2-0.1,0.3-0.2,0.5-0.3
				l0.3,0.8c-0.3,0.2-0.7,0.4-1.1,0.5c-0.4,0.2-0.9,0.2-1.5,0.2c-0.6,0-1.1-0.1-1.6-0.3c-0.4-0.2-0.8-0.4-1.1-0.8
				c-0.3-0.3-0.5-0.8-0.6-1.2c-0.1-0.5-0.2-1-0.2-1.6c0-0.6,0.1-1.1,0.2-1.6c0.1-0.5,0.3-0.9,0.6-1.2c0.3-0.4,0.6-0.6,1-0.8
				c0.4-0.2,0.9-0.3,1.4-0.3c0.9,0,1.6,0.3,2.1,0.9c0.5,0.6,0.8,1.5,0.8,2.7v0.5h-4.7c0,1,0.2,1.7,0.5,2.1
				C102.4,55.3,102.9,55.5,103.7,55.5z M103.3,49.4c-0.5,0-0.8,0.2-1.2,0.7c-0.3,0.5-0.5,1.1-0.6,1.9h3.3c0-0.5-0.1-0.9-0.2-1.2
				c-0.1-0.3-0.2-0.6-0.4-0.8c-0.1-0.2-0.3-0.4-0.5-0.5C103.6,49.4,103.5,49.4,103.3,49.4z"/>
			<path class="st1" d="M114.1,49.8h-1.1c-0.1,0.1-0.2,0.1-0.3,0.2c-0.1,0.1-0.2,0.1-0.3,0.3l-1.5,1.9c0.3,0.1,0.6,0.3,0.8,0.6
				c0.3,0.3,0.5,0.6,0.9,1.1l1.8,2.4h-1c-0.2,0-0.4,0-0.6-0.1c-0.2-0.1-0.4-0.2-0.6-0.5l-2-2.8h-0.5v3.5h-1.5v-6.8h-0.9v-0.6h1.4
				c0.3,0,0.5,0.1,0.7,0.3c0.1,0.2,0.2,0.4,0.2,0.7v2.2h0.4l1.5-2c0.2-0.2,0.4-0.4,0.5-0.6c0.2-0.1,0.3-0.3,0.5-0.3
				c0.1-0.1,0.3-0.1,0.5-0.2c0.2,0,0.3,0,0.5,0h0.6V49.8z"/>
			<path class="st1" d="M119.2,49.6v6.6h-1.5v-6.6H116V51h-1v-1.7c0-0.2,0-0.3,0.1-0.4c0.1-0.1,0.2-0.2,0.4-0.2h6.1
				c0.1,0,0.3,0.1,0.4,0.2c0.1,0.1,0.1,0.2,0.1,0.4V51h-1v-1.4H119.2z"/>
			<path class="st1" d="M126.7,56.4c-0.5,0-1-0.1-1.4-0.3c-0.4-0.2-0.8-0.4-1-0.7c-0.3-0.3-0.5-0.7-0.7-1.2c-0.2-0.5-0.2-1-0.2-1.7
				c0-0.7,0.1-1.2,0.2-1.7s0.4-0.9,0.7-1.2c0.3-0.3,0.6-0.6,1.1-0.7c0.4-0.2,0.8-0.2,1.3-0.2s0.9,0.1,1.3,0.2
				c0.4,0.2,0.8,0.4,1.1,0.7c0.3,0.3,0.5,0.7,0.7,1.2c0.2,0.5,0.2,1.1,0.2,1.7c0,0.6-0.1,1.2-0.2,1.7c-0.2,0.5-0.4,0.9-0.7,1.2
				c-0.3,0.3-0.6,0.6-1,0.7C127.7,56.3,127.2,56.4,126.7,56.4z M126.7,55.7c0.3,0,0.5-0.1,0.7-0.2c0.2-0.1,0.4-0.3,0.6-0.6
				c0.2-0.3,0.3-0.6,0.4-1c0.1-0.4,0.1-0.9,0.1-1.5c0-0.6,0-1-0.1-1.4c-0.1-0.4-0.2-0.7-0.4-1c-0.2-0.3-0.4-0.4-0.6-0.6
				c-0.2-0.1-0.5-0.2-0.7-0.2c-0.2,0-0.5,0.1-0.7,0.2c-0.2,0.1-0.4,0.3-0.6,0.6c-0.2,0.3-0.3,0.6-0.4,1c-0.1,0.4-0.1,0.9-0.1,1.4
				c0,0.6,0,1.1,0.1,1.5c0.1,0.4,0.2,0.7,0.4,1c0.2,0.3,0.3,0.4,0.6,0.6C126.2,55.6,126.5,55.7,126.7,55.7z"/>
			<path class="st1" d="M133.1,56.2c-0.3,0-0.5-0.1-0.7-0.3c-0.1-0.2-0.2-0.4-0.2-0.7v-5.9h-0.9v-0.6h3.9c0.3,0,0.6,0,0.9,0.1
				c0.3,0.1,0.6,0.2,0.8,0.3c0.2,0.2,0.4,0.3,0.6,0.6c0.1,0.2,0.2,0.5,0.2,0.9c0,0.4-0.1,0.7-0.3,1c-0.2,0.3-0.5,0.5-0.9,0.6v0.1
				c0.2,0,0.4,0.1,0.6,0.2c0.2,0.1,0.3,0.2,0.5,0.3c0.1,0.1,0.2,0.3,0.3,0.5c0.1,0.2,0.1,0.4,0.1,0.7c0,0.5-0.1,0.8-0.3,1.1
				c-0.2,0.3-0.4,0.5-0.7,0.6c-0.3,0.1-0.6,0.2-1,0.3c-0.3,0-0.7,0.1-0.9,0.1H133.1z M135.1,52.1c0.1,0,0.2,0,0.3,0
				c0.1,0,0.3-0.1,0.4-0.2c0.1-0.1,0.2-0.2,0.3-0.4c0.1-0.2,0.1-0.4,0.1-0.6c0-0.4-0.1-0.7-0.4-1c-0.3-0.2-0.6-0.3-0.9-0.3h-1.3v2.5
				H135.1z M135.2,55.4c0.3,0,0.5,0,0.7-0.1s0.3-0.2,0.4-0.3c0.1-0.1,0.2-0.3,0.2-0.4c0-0.2,0.1-0.3,0.1-0.4c0-0.4-0.1-0.8-0.4-0.9
				c-0.3-0.2-0.6-0.3-1-0.3h-1.4v2.5H135.2z"/>
			<path class="st1" d="M146.4,48.8h1.3c0.2,0,0.4,0.1,0.5,0.2c0.1,0.1,0.2,0.3,0.2,0.4c0.2-0.2,0.6-0.4,0.9-0.6
				c0.4-0.2,0.7-0.2,1.1-0.2c1,0,1.7,0.3,2.2,0.9c0.5,0.6,0.8,1.6,0.8,2.9c0,1.3-0.3,2.3-0.8,3c-0.5,0.7-1.3,1.1-2.3,1.1
				c-0.1,0-0.2,0-0.4,0c-0.1,0-0.3-0.1-0.4-0.1c-0.2,0-0.3-0.1-0.4-0.2c-0.1-0.1-0.3-0.1-0.4-0.2v3.7h-1.5V49.4h-0.9V48.8z
				 M150.3,49.5c-0.3,0-0.6,0.1-0.9,0.2c-0.3,0.2-0.5,0.3-0.7,0.5V55c0.1,0.1,0.2,0.2,0.4,0.3c0.1,0.1,0.3,0.1,0.4,0.2
				c0.1,0,0.3,0.1,0.4,0.1c0.1,0,0.2,0,0.3,0c0.2,0,0.5-0.1,0.7-0.2c0.2-0.1,0.4-0.3,0.6-0.5c0.2-0.2,0.3-0.6,0.4-1
				c0.1-0.4,0.1-0.9,0.1-1.6c0-1-0.2-1.8-0.5-2.2C151.2,49.7,150.8,49.5,150.3,49.5z"/>
			<path class="st1" d="M155.6,51v-1.2c0-0.3,0.2-0.6,0.5-0.7c0.5-0.2,0.9-0.3,1.3-0.4s0.7-0.1,1.1-0.1c0.5,0,1,0.1,1.4,0.2
				c0.4,0.1,0.6,0.3,0.9,0.5c0.2,0.2,0.4,0.5,0.5,0.8c0.1,0.3,0.1,0.7,0.1,1.1v5.1h-0.6c-0.6,0-0.9-0.3-0.9-0.9h0
				c-0.4,0.4-0.9,0.7-1.3,0.9c-0.4,0.1-0.8,0.2-1.1,0.2c-0.4,0-0.7-0.1-1-0.2c-0.3-0.1-0.5-0.3-0.7-0.4c-0.2-0.2-0.3-0.4-0.4-0.7
				c-0.1-0.3-0.1-0.5-0.1-0.8c0-0.3,0.1-0.6,0.2-0.9c0.1-0.3,0.3-0.6,0.6-0.8c0.3-0.2,0.6-0.4,1.1-0.6c0.5-0.1,1-0.2,1.7-0.2h1.1
				v-0.6c0-0.7-0.1-1.1-0.4-1.4c-0.3-0.3-0.7-0.4-1.2-0.4c-0.3,0-0.6,0-0.8,0.1c-0.2,0.1-0.5,0.1-0.8,0.3V51H155.6z M158.9,52.6
				c-0.5,0-0.9,0-1.2,0.1c-0.3,0.1-0.6,0.2-0.7,0.4s-0.3,0.3-0.4,0.5s-0.1,0.4-0.1,0.6c0,0.4,0.1,0.7,0.3,0.9
				c0.2,0.2,0.5,0.3,0.9,0.3c0.2,0,0.4,0,0.6-0.1c0.2-0.1,0.4-0.2,0.5-0.3c0.2-0.1,0.3-0.2,0.5-0.4c0.1-0.1,0.3-0.3,0.3-0.4v-1.7
				H158.9z"/>
			<path class="st1" d="M163.4,50.9v-1.2c0-0.2,0-0.4,0.1-0.5c0.1-0.1,0.2-0.2,0.4-0.3c0.4-0.1,0.7-0.2,1.1-0.3
				c0.4-0.1,0.8-0.1,1.3-0.1c0.4,0,0.8,0.1,1.2,0.2c0.3,0.1,0.6,0.2,0.8,0.4c0.2,0.2,0.4,0.4,0.5,0.6c0.1,0.2,0.2,0.5,0.2,0.7
				c0,0.2,0,0.3-0.1,0.5c0,0.2-0.1,0.4-0.2,0.5c-0.1,0.2-0.3,0.3-0.4,0.5c-0.2,0.1-0.4,0.2-0.6,0.3v0.1c0.5,0.1,0.9,0.2,1.1,0.5
				c0.3,0.3,0.4,0.7,0.4,1.1c0,0.3-0.1,0.6-0.2,0.9c-0.1,0.3-0.3,0.5-0.6,0.7c-0.3,0.2-0.6,0.4-1,0.5c-0.4,0.1-0.9,0.2-1.4,0.2
				c-0.4,0-0.7,0-1.1-0.1c-0.4-0.1-0.7-0.2-1-0.3c-0.1-0.1-0.3-0.1-0.4-0.3c-0.1-0.1-0.2-0.3-0.2-0.6V54h1v1.2
				c0.2,0.1,0.5,0.2,0.7,0.3c0.2,0.1,0.5,0.1,0.8,0.1c0.5,0,0.9-0.1,1.3-0.4c0.3-0.2,0.5-0.6,0.5-1.1c0-0.3,0-0.5-0.1-0.6
				c-0.1-0.2-0.2-0.3-0.4-0.4c-0.1-0.1-0.3-0.2-0.5-0.2c-0.2,0-0.3-0.1-0.5-0.1h-1.2V52h1.2c0.1,0,0.3,0,0.4-0.1
				c0.2,0,0.3-0.1,0.4-0.2c0.1-0.1,0.2-0.2,0.3-0.4c0.1-0.2,0.1-0.4,0.1-0.6c0-0.4-0.2-0.7-0.5-0.9c-0.3-0.2-0.7-0.3-1.2-0.3
				c-0.2,0-0.3,0-0.4,0c-0.1,0-0.2,0-0.4,0.1s-0.2,0.1-0.3,0.1s-0.2,0.1-0.4,0.1v1.2H163.4z"/>
			<path class="st1" d="M170.3,48.8h1.7c0.2,0,0.4,0.1,0.6,0.2c0.2,0.1,0.4,0.3,0.5,0.6l2,5.1l2.3-5.9h1.6v7.5h-0.6
				c-0.3,0-0.5-0.1-0.7-0.3c-0.1-0.2-0.2-0.4-0.2-0.7v-4.3h-0.1l-2,5.3h-0.8l-2.2-5.5h-0.1v5.5h-1.1v-6.8h-0.9V48.8z"/>
			<path class="st1" d="M184.8,55.5c0.2,0,0.4,0,0.5,0c0.2,0,0.3-0.1,0.5-0.1c0.1-0.1,0.3-0.1,0.5-0.2c0.2-0.1,0.3-0.2,0.5-0.3
				l0.3,0.8c-0.3,0.2-0.7,0.4-1.1,0.5c-0.4,0.2-0.9,0.2-1.5,0.2c-0.6,0-1.1-0.1-1.6-0.3c-0.4-0.2-0.8-0.4-1.1-0.8
				c-0.3-0.3-0.5-0.8-0.6-1.2c-0.1-0.5-0.2-1-0.2-1.6c0-0.6,0.1-1.1,0.2-1.6c0.1-0.5,0.3-0.9,0.6-1.2c0.3-0.4,0.6-0.6,1-0.8
				c0.4-0.2,0.9-0.3,1.4-0.3c0.9,0,1.6,0.3,2.1,0.9c0.5,0.6,0.8,1.5,0.8,2.7v0.5h-4.7c0,1,0.2,1.7,0.5,2.1
				C183.5,55.3,184,55.5,184.8,55.5z M184.3,49.4c-0.5,0-0.8,0.2-1.2,0.7c-0.3,0.5-0.5,1.1-0.6,1.9h3.3c0-0.5-0.1-0.9-0.2-1.2
				c-0.1-0.3-0.2-0.6-0.4-0.8c-0.1-0.2-0.3-0.4-0.5-0.5C184.7,49.4,184.5,49.4,184.3,49.4z"/>
			<path class="st1" d="M190.2,56.2c-0.3,0-0.5-0.1-0.7-0.3c-0.1-0.2-0.2-0.4-0.2-0.7v-5.9h-0.9v-0.6h1.4c0.3,0,0.5,0.1,0.7,0.3
				c0.1,0.2,0.2,0.4,0.2,0.7v5.6h2.5v-6.6h1.5v6.6h2.5v-6.6h1.5v6.6h1.1v2.5h-1v-1.7H190.2z"/>
			<path class="st1" d="M204.7,55.5c0.2,0,0.4,0,0.5,0c0.2,0,0.3-0.1,0.5-0.1c0.1-0.1,0.3-0.1,0.5-0.2c0.2-0.1,0.3-0.2,0.5-0.3
				l0.3,0.8c-0.3,0.2-0.7,0.4-1.1,0.5c-0.4,0.2-0.9,0.2-1.5,0.2c-0.6,0-1.1-0.1-1.6-0.3c-0.4-0.2-0.8-0.4-1.1-0.8
				c-0.3-0.3-0.5-0.8-0.6-1.2c-0.1-0.5-0.2-1-0.2-1.6c0-0.6,0.1-1.1,0.2-1.6c0.1-0.5,0.3-0.9,0.6-1.2c0.3-0.4,0.6-0.6,1-0.8
				c0.4-0.2,0.9-0.3,1.4-0.3c0.9,0,1.6,0.3,2.1,0.9c0.5,0.6,0.8,1.5,0.8,2.7v0.5h-4.7c0,1,0.2,1.7,0.5,2.1
				C203.4,55.3,204,55.5,204.7,55.5z M204.3,49.4c-0.5,0-0.8,0.2-1.2,0.7c-0.3,0.5-0.5,1.1-0.6,1.9h3.3c0-0.5-0.1-0.9-0.2-1.2
				c-0.1-0.3-0.2-0.6-0.4-0.8c-0.1-0.2-0.3-0.4-0.5-0.5C204.7,49.4,204.5,49.4,204.3,49.4z"/>
			<path class="st1" d="M209.2,49.4h-0.9v-0.6h1.4c0.3,0,0.5,0.1,0.7,0.3c0.1,0.2,0.2,0.4,0.2,0.7V52h3.2v-3.2h1.5v7.5h-0.6
				c-0.3,0-0.5-0.1-0.7-0.3c-0.1-0.2-0.2-0.4-0.2-0.7v-2.4h-3.2v3.4h-1.5V49.4z"/>
			<path class="st1" d="M218.1,49.4h-0.9v-0.6h1.4c0.3,0,0.5,0.1,0.7,0.3c0.1,0.2,0.2,0.4,0.2,0.7v4.6h0.1l3.2-5.6h1.4v7.5h-0.6
				c-0.3,0-0.5-0.1-0.7-0.3c-0.1-0.2-0.2-0.4-0.2-0.7v-4.6h-0.1l-3.2,5.6h-1.4V49.4z"/>
			<path class="st1" d="M232.4,56.2h-0.6c-0.3,0-0.5-0.1-0.7-0.3c-0.1-0.2-0.2-0.4-0.2-0.7v-2.1h-0.8l-1.6,2.4
				c-0.2,0.2-0.3,0.4-0.5,0.5c-0.2,0.1-0.5,0.2-0.8,0.2h-1l1.4-1.9c0.2-0.2,0.3-0.4,0.4-0.5c0.1-0.1,0.2-0.3,0.3-0.4
				c0.1-0.1,0.2-0.2,0.3-0.2c0.1-0.1,0.2-0.1,0.3-0.2V53c-0.4,0-0.8-0.1-1.1-0.3c-0.3-0.1-0.5-0.3-0.6-0.5c-0.2-0.2-0.3-0.4-0.3-0.6
				c-0.1-0.2-0.1-0.5-0.1-0.7c0-0.7,0.2-1.2,0.7-1.6c0.5-0.4,1.2-0.6,2.1-0.6h1.9c0.3,0,0.5,0.1,0.7,0.3c0.1,0.2,0.2,0.4,0.2,0.7
				V56.2z M229.8,49.6c-0.5,0-0.8,0.1-1.1,0.3c-0.3,0.2-0.4,0.6-0.4,1.1c0,0.2,0,0.4,0.1,0.6c0.1,0.2,0.2,0.3,0.4,0.4
				c0.2,0.1,0.3,0.2,0.5,0.3c0.2,0.1,0.4,0.1,0.7,0.1h0.9v-2.8H229.8z"/>
		</g>
		<g>
			<rect x="59.8" y="40" class="st1" width="173.7" height="0.9"/>
		</g>
	</g>
</g>
</svg>
